<?xml version="1.0" encoding="utf-8"?>
<!-- Generator: Adobe Illustrator 27.5.0, SVG Export Plug-In . SVG Version: 6.00 Build 0)  -->
<svg version="1.1" id="Layer_1" xmlns="http://www.w3.org/2000/svg" xmlns:xlink="http://www.w3.org/1999/xlink" x="0px" y="0px"
	 viewBox="0 0 288 288" style="enable-background:new 0 0 288 288;" xml:space="preserve">
<style type="text/css">
	.st0{fill:url(#SVGID_1_);}
	.st1{clip-path:url(#SVGID_00000027588471297872719800000009089012056917613955_);}
	.st2{fill:#152E6C;}
	.st3{fill:#232B69;}
	.st4{fill:#46316C;}
	.st5{fill:#593176;}
	.st6{fill:#532789;}
	.st7{fill:#492097;}
	.st8{fill:#312498;}
	.st9{fill:#15269D;}
	.st10{fill:#022DAB;}
	.st11{fill:#0051BF;}
	.st12{fill:#14A8DE;}
	.st13{fill:#14D0DA;}
	.st14{fill:#05C9AC;}
	.st15{fill:#00AF7B;}
	.st16{fill:#00A471;}
	.st17{fill:#192B69;}
	.st18{fill:#2B2965;}
	.st19{fill:#2B2967;}
	.st20{fill:#4D2C65;}
	.st21{fill:#512E6A;}
	.st22{fill:#7B2F66;}
	.st23{fill:#652F7A;}
	.st24{fill:#913385;}
	.st25{fill:#602692;}
	.st26{fill:#8D2AA9;}
	.st27{fill:#531FA0;}
	.st28{fill:#7423B5;}
	.st29{fill:#3321A0;}
	.st30{fill:#4424B4;}
	.st31{fill:#0E20A3;}
	.st32{fill:#1B29BB;}
	.st33{fill:#002EB4;}
	.st34{fill:#073FD3;}
	.st35{fill:#005ECA;}
	.st36{fill:#1490E9;}
	.st37{fill:#13B7E4;}
	.st38{fill:#0FDBF1;}
	.st39{fill:#0ED7D8;}
	.st40{fill:#02E2C6;}
	.st41{fill:#04CCA3;}
	.st42{fill:#01D08A;}
	.st43{fill:#00AF74;}
	.st44{fill:#00B168;}
	.st45{fill:#00A56C;}
	.st46{fill:#00A462;}
	.st47{fill:#492F69;}
	.st48{fill:#50316B;}
	.st49{fill:#743964;}
	.st50{fill:#743564;}
	.st51{fill:#A03157;}
	.st52{fill:#B5445A;}
	.st53{fill:#C0287D;}
	.st54{fill:#DC388B;}
	.st55{fill:#C835BB;}
	.st56{fill:#ED38BF;}
	.st57{fill:#A130C4;}
	.st58{fill:#DA51CC;}
	.st59{fill:#7137C4;}
	.st60{fill:#C55FCB;}
	.st61{fill:#5841CC;}
	.st62{fill:#B65DD2;}
	.st63{fill:#4D60DA;}
	.st64{fill:#A798D7;}
	.st65{fill:#30BBF4;}
	.st66{fill:#7FE6E4;}
	.st67{fill:#17F2E6;}
	.st68{fill:#8EFEC0;}
	.st69{fill:#23F199;}
	.st70{fill:#A2FD7F;}
	.st71{fill:#2BE265;}
	.st72{fill:#70F655;}
	.st73{fill:#12B75B;}
	.st74{fill:#61DD52;}
	.st75{fill:#0BA75B;}
	.st76{fill:#69D358;}
	.st77{fill:#4A2B63;}
	.st78{fill:#47285B;}
	.st79{fill:#6F3260;}
	.st80{fill:#71305B;}
	.st81{fill:#B14771;}
	.st82{fill:#AC3B7D;}
	.st83{fill:#EC6AA0;}
	.st84{fill:#E25DB1;}
	.st85{fill:#FD58B8;}
	.st86{fill:#EF6EC3;}
	.st87{fill:#FD5EBD;}
	.st88{fill:#FB67BD;}
	.st89{fill:#FD70BD;}
	.st90{fill:#FE87BF;}
	.st91{fill:#FB89C1;}
	.st92{fill:#FEBEC8;}
	.st93{fill:#EFD2D0;}
	.st94{fill:#FEEAD8;}
	.st95{fill:#D9FAD9;}
	.st96{fill:#FDFCDD;}
	.st97{fill:#A7FEB4;}
	.st98{fill:#E0FEBC;}
	.st99{fill:#C7FE86;}
	.st100{fill:#C5FEA1;}
	.st101{fill:#D7FE8C;}
	.st102{fill:#E2FE92;}
	.st103{fill:#9BF455;}
	.st104{fill:#B6F745;}
	.st105{fill:#9CED50;}
	.st106{fill:#A7EE36;}
	.st107{fill:#40255B;}
	.st108{fill:#48336D;}
	.st109{fill:#682F6B;}
	.st110{fill:#703873;}
	.st111{fill:#AC4288;}
	.st112{fill:#B3518A;}
	.st113{fill:#D657B4;}
	.st114{fill:#D172AC;}
	.st115{fill:#FA98B3;}
	.st116{fill:#F3A7B3;}
	.st117{fill:#FEA2B4;}
	.st118{fill:#F793BF;}
	.st119{fill:#FEBDC3;}
	.st120{fill:#FAB3C9;}
	.st121{fill:#FBD3D4;}
	.st122{fill:#F6DBDA;}
	.st123{fill:#FCF3E4;}
	.st124{fill:#E7F9EA;}
	.st125{fill:#F9FEDF;}
	.st126{fill:#E5FED2;}
	.st127{fill:#FBFEB5;}
	.st128{fill:#F1FE89;}
	.st129{fill:#CCFE7F;}
	.st130{fill:#F6F951;}
	.st131{fill:#CEFE5A;}
	.st132{fill:#F4E651;}
	.st133{fill:#F0EF40;}
	.st134{fill:#FAD647;}
	.st135{fill:#F0E138;}
	.st136{fill:#F6CE33;}
	.st137{fill:#51356A;}
	.st138{fill:#632C76;}
	.st139{fill:#975863;}
	.st140{fill:#9C3F92;}
	.st141{fill:#D68786;}
	.st142{fill:#D46EA8;}
	.st143{fill:#D080AF;}
	.st144{fill:#D79DBB;}
	.st145{fill:#E081C1;}
	.st146{fill:#9A6FDA;}
	.st147{fill:#D488D2;}
	.st148{fill:#AB95DE;}
	.st149{fill:#E0BED6;}
	.st150{fill:#B9DADF;}
	.st151{fill:#D4E3E3;}
	.st152{fill:#CDFAE1;}
	.st153{fill:#D9FCDC;}
	.st154{fill:#E1FEC7;}
	.st155{fill:#CEFEA7;}
	.st156{fill:#E1FE85;}
	.st157{fill:#DBFE60;}
	.st158{fill:#B6F845;}
	.st159{fill:#FAEC36;}
	.st160{fill:#9DD331;}
	.st161{fill:#FBCA44;}
	.st162{fill:#B9B450;}
	.st163{fill:#EAC656;}
	.st164{fill:#B69F46;}
	.st165{fill:#EAC559;}
	.st166{fill:#BB9A43;}
	.st167{fill:#7D288F;}
	.st168{fill:#8F2EA4;}
	.st169{fill:#AE3CB0;}
	.st170{fill:#A537BD;}
	.st171{fill:#D478AE;}
	.st172{fill:#9847BA;}
	.st173{fill:#CA9BBA;}
	.st174{fill:#5C3CC0;}
	.st175{fill:#8E87D9;}
	.st176{fill:#5661D2;}
	.st177{fill:#8D9FE1;}
	.st178{fill:#72A3DE;}
	.st179{fill:#B8E5E1;}
	.st180{fill:#6CDFEA;}
	.st181{fill:#CEFDDC;}
	.st182{fill:#A6FBCB;}
	.st183{fill:#CBFEB3;}
	.st184{fill:#93F58A;}
	.st185{fill:#B4FB64;}
	.st186{fill:#5DD848;}
	.st187{fill:#98E03A;}
	.st188{fill:#70BC41;}
	.st189{fill:#72B13F;}
	.st190{fill:#659851;}
	.st191{fill:#748F49;}
	.st192{fill:#487058;}
	.st193{fill:#877D4E;}
	.st194{fill:#4F635C;}
	.st195{fill:#8A7B50;}
	.st196{fill:#505E5D;}
	.st197{fill:#8623AF;}
	.st198{fill:#6F1AAA;}
	.st199{fill:#842BBF;}
	.st200{fill:#5A19AB;}
	.st201{fill:#4F1BB7;}
	.st202{fill:#2617A4;}
	.st203{fill:#221FB8;}
	.st204{fill:#0117A7;}
	.st205{fill:#1B45D1;}
	.st206{fill:#003ABC;}
	.st207{fill:#2D95E4;}
	.st208{fill:#038BD5;}
	.st209{fill:#30DCE5;}
	.st210{fill:#1ACEDE;}
	.st211{fill:#56EDBB;}
	.st212{fill:#1ED2B8;}
	.st213{fill:#3BD881;}
	.st214{fill:#06B17F;}
	.st215{fill:#0AAA5E;}
	.st216{fill:#038767;}
	.st217{fill:#178558;}
	.st218{fill:#106667;}
	.st219{fill:#2D6C5D;}
	.st220{fill:#174F63;}
	.st221{fill:#2C5660;}
	.st222{fill:#1F4B6A;}
	.st223{fill:#38566E;}
	.st224{fill:#24466E;}
	.st225{fill:#39536F;}
	.st226{fill:#23406C;}
	.st227{fill:#4E1A9D;}
	.st228{fill:#291E8C;}
	.st229{fill:#311A98;}
	.st230{fill:#15208A;}
	.st231{fill:#0D1D95;}
	.st232{fill:#05298D;}
	.st233{fill:#002497;}
	.st234{fill:#00308F;}
	.st235{fill:#0048A9;}
	.st236{fill:#004B95;}
	.st237{fill:#0084B9;}
	.st238{fill:#00739D;}
	.st239{fill:#02A7B7;}
	.st240{fill:#008B9C;}
	.st241{fill:#08AE9A;}
	.st242{fill:#049687;}
	.st243{fill:#049172;}
	.st244{fill:#047F6D;}
	.st245{fill:#076E6A;}
	.st246{fill:#0A5E69;}
	.st247{fill:#115469;}
	.st248{fill:#154F6E;}
	.st249{fill:#184B6C;}
	.st250{fill:#17466F;}
	.st251{fill:#14416C;}
	.st252{fill:#0F3C6F;}
	.st253{fill:#12366A;}
	.st254{fill:#0D336D;}
	.st255{fill:#14356A;}
	.st256{fill:#0E336E;}
	.st257{fill:#1F2186;}
	.st258{fill:#102588;}
	.st259{fill:#032D8A;}
	.st260{fill:#01368F;}
	.st261{fill:#004B8E;}
	.st262{fill:#007099;}
	.st263{fill:#008598;}
	.st264{fill:#068F84;}
	.st265{fill:#03786B;}
	.st266{fill:#0B5A68;}
	.st267{fill:#184E6F;}
	.st268{fill:#184671;}
	.st269{fill:#0E3A6F;}
	.st270{fill:#0C3470;}
	.st271{fill:#0D3470;}
	.st272{opacity:0.8;fill:#5F91A3;}
	.st273{fill:#FFFFFF;}
	.st274{opacity:0.4;clip-path:url(#SVGID_00000052080552932238675190000000636550421457232521_);}
	.st275{clip-path:url(#SVGID_00000068640675608044796710000011933648983417363607_);}
	.st276{clip-path:url(#SVGID_00000013162058335827168960000002687137346814894502_);}
	.st277{fill:#EAEAEA;}
	.st278{fill:#DCDCDC;}
	.st279{fill:#CFCFCF;}
	.st280{fill:#FDFDFD;}
	.st281{fill:#F1F1F1;}
	.st282{fill:#EBEBEB;}
	.st283{fill:#FEFEFE;}
	.st284{fill:#E8E8E8;}
	.st285{fill:#DDDDDD;}
	.st286{fill:#D4D4D4;}
	.st287{fill:#D1D1D1;}
	.st288{fill:#C3C3C3;}
	.st289{fill:#CECECE;}
	.st290{fill:#C4C4C4;}
	.st291{fill:#CBCBCB;}
	.st292{fill:#BFBFBF;}
	.st293{fill:#EFEFEF;}
	.st294{fill:#FAFAFA;}
	.st295{fill:#E9E9E9;}
	.st296{fill:#E5E5E5;}
	.st297{fill:#E6E6E6;}
	.st298{fill:#DFDFDF;}
	.st299{fill:#DBDBDB;}
	.st300{fill:#BBBBBB;}
	.st301{fill:#B9B9B9;}
	.st302{fill:#B3B3B3;}
	.st303{fill:#B5B5B5;}
	.st304{fill:#FBFBFB;}
	.st305{fill:#EEEEEE;}
	.st306{fill:#E4E4E4;}
	.st307{fill:#D7D7D7;}
	.st308{fill:#D9D9D9;}
	.st309{fill:#CCCCCC;}
	.st310{fill:#C5C5C5;}
	.st311{fill:#B8B8B8;}
	.st312{fill:#BEBEBE;}
	.st313{fill:#FCFCFC;}
	.st314{fill:#F9F9F9;}
	.st315{fill:#E1E1E1;}
	.st316{fill:#E3E3E3;}
	.st317{fill:#D6D6D6;}
	.st318{fill:#E0E0E0;}
	.st319{fill:#C0C0C0;}
	.st320{fill:#BABABA;}
	.st321{fill:#AEAEAE;}
	.st322{fill:#BCBCBC;}
</style>
<g>
	<radialGradient id="SVGID_1_" cx="142.1925" cy="477.1061" r="305.3333" gradientUnits="userSpaceOnUse">
		<stop  offset="0.3763" style="stop-color:#FFFFFF"/>
		<stop  offset="1" style="stop-color:#EDEDED"/>
	</radialGradient>
	<rect y="321.6" class="st0" width="288" height="288"/>
	<g>
		<g>
			<defs>
				<rect id="SVGID_00000072271317089096248920000018218050774476248476_" y="321.6" width="288" height="288"/>
			</defs>
			<clipPath id="SVGID_00000107548504087229722340000000549447055465284504_">
				<use xlink:href="#SVGID_00000072271317089096248920000018218050774476248476_"  style="overflow:visible;"/>
			</clipPath>
		</g>
		<g>
			<defs>
				<rect id="SVGID_00000153686654799638457740000015824120749687836302_" y="321.6" width="288" height="288"/>
			</defs>
			<clipPath id="SVGID_00000094610673451309209180000003349917478304903349_">
				<use xlink:href="#SVGID_00000153686654799638457740000015824120749687836302_"  style="overflow:visible;"/>
			</clipPath>
			<g style="clip-path:url(#SVGID_00000094610673451309209180000003349917478304903349_);">
				<polygon class="st2" points="-33.9,296 -15,296 -5.5,279.6 -24.5,279.6 				"/>
				<polygon class="st2" points="-15.2,296 3.7,296 13.2,279.6 -5.7,279.6 				"/>
				<polygon class="st2" points="3.5,296 22.5,296 32,279.6 13,279.6 				"/>
				<polygon class="st3" points="22.3,296 41.2,296 50.7,279.6 31.8,279.6 				"/>
				<polygon class="st4" points="41,296 60,296 69.4,279.6 50.5,279.6 				"/>
				<polygon class="st5" points="59.8,296 78.7,296 88.2,279.6 69.2,279.6 				"/>
				<polygon class="st6" points="78.5,296 97.4,296 106.9,279.6 88,279.6 				"/>
				<polygon class="st7" points="97.2,296 116.2,296 125.7,279.6 106.7,279.6 				"/>
				<polygon class="st8" points="116,296 134.9,296 144.4,279.6 125.5,279.6 				"/>
				<polygon class="st9" points="134.7,296 153.7,296 163.1,279.6 144.2,279.6 				"/>
				<polygon class="st10" points="153.5,296 172.4,296 181.9,279.6 162.9,279.6 				"/>
				<polygon class="st11" points="172.2,296 191.2,296 200.6,279.6 181.7,279.6 				"/>
				<polygon class="st12" points="190.9,296 209.9,296 219.4,279.6 200.4,279.6 				"/>
				<polygon class="st13" points="209.7,296 228.6,296 238.1,279.6 219.2,279.6 				"/>
				<polygon class="st14" points="228.4,296 247.4,296 256.8,279.6 237.9,279.6 				"/>
				<polygon class="st15" points="247.2,296 266.1,296 275.6,279.6 256.6,279.6 				"/>
				<polygon class="st16" points="265.9,296 284.9,296 294.3,279.6 275.4,279.6 				"/>
				<polygon class="st16" points="284.6,296 303.6,296 313.1,279.6 294.1,279.6 				"/>
				<polygon class="st16" points="303.4,296 322.3,296 331.8,279.6 312.9,279.6 				"/>
				<polygon class="st16" points="322.1,296 341.1,296 350.6,279.6 331.6,279.6 				"/>
				<polygon class="st2" points="-33.9,295.8 -15,295.8 -5.5,312.2 -24.5,312.2 				"/>
				<polygon class="st2" points="-33.9,328.4 -15,328.4 -5.5,312 -24.5,312 				"/>
				<polygon class="st2" points="-15.2,295.8 3.7,295.8 13.2,312.2 -5.7,312.2 				"/>
				<polygon class="st2" points="-15.2,328.4 3.7,328.4 13.2,312 -5.7,312 				"/>
				<polygon class="st2" points="3.5,295.8 22.5,295.8 32,312.2 13,312.2 				"/>
				<polygon class="st2" points="3.5,328.4 22.5,328.4 32,312 13,312 				"/>
				<polygon class="st3" points="22.3,295.8 41.2,295.8 50.7,312.2 31.8,312.2 				"/>
				<polygon class="st3" points="22.3,328.4 41.2,328.4 50.7,312 31.8,312 				"/>
				<polygon class="st4" points="41,295.8 60,295.8 69.4,312.2 50.5,312.2 				"/>
				<polygon class="st4" points="41,328.4 60,328.4 69.4,312 50.5,312 				"/>
				<polygon class="st5" points="59.8,295.8 78.7,295.8 88.2,312.2 69.2,312.2 				"/>
				<polygon class="st5" points="59.8,328.4 78.7,328.4 88.2,312 69.2,312 				"/>
				<polygon class="st6" points="78.5,295.8 97.4,295.8 106.9,312.2 88,312.2 				"/>
				<polygon class="st6" points="78.5,328.4 97.4,328.4 106.9,312 88,312 				"/>
				<polygon class="st7" points="97.2,295.8 116.2,295.8 125.7,312.2 106.7,312.2 				"/>
				<polygon class="st7" points="97.2,328.4 116.2,328.4 125.7,312 106.7,312 				"/>
				<polygon class="st8" points="116,295.8 134.9,295.8 144.4,312.2 125.5,312.2 				"/>
				<polygon class="st8" points="116,328.4 134.9,328.4 144.4,312 125.5,312 				"/>
				<polygon class="st9" points="134.7,295.8 153.7,295.8 163.1,312.2 144.2,312.2 				"/>
				<polygon class="st9" points="134.7,328.4 153.7,328.4 163.1,312 144.2,312 				"/>
				<polygon class="st10" points="153.5,295.8 172.4,295.8 181.9,312.2 162.9,312.2 				"/>
				<polygon class="st10" points="153.5,328.4 172.4,328.4 181.9,312 162.9,312 				"/>
				<polygon class="st11" points="172.2,295.8 191.2,295.8 200.6,312.2 181.7,312.2 				"/>
				<polygon class="st11" points="172.2,328.4 191.2,328.4 200.6,312 181.7,312 				"/>
				<polygon class="st12" points="190.9,295.8 209.9,295.8 219.4,312.2 200.4,312.2 				"/>
				<polygon class="st12" points="190.9,328.4 209.9,328.4 219.4,312 200.4,312 				"/>
				<polygon class="st13" points="209.7,295.8 228.6,295.8 238.1,312.2 219.2,312.2 				"/>
				<polygon class="st13" points="209.7,328.4 228.6,328.4 238.1,312 219.2,312 				"/>
				<polygon class="st14" points="228.4,295.8 247.4,295.8 256.8,312.2 237.9,312.2 				"/>
				<polygon class="st14" points="228.4,328.4 247.4,328.4 256.8,312 237.9,312 				"/>
				<polygon class="st15" points="247.2,295.8 266.1,295.8 275.6,312.2 256.6,312.2 				"/>
				<polygon class="st15" points="247.2,328.4 266.1,328.4 275.6,312 256.6,312 				"/>
				<polygon class="st16" points="265.9,295.8 284.9,295.8 294.3,312.2 275.4,312.2 				"/>
				<polygon class="st16" points="265.9,328.4 284.9,328.4 294.3,312 275.4,312 				"/>
				<polygon class="st16" points="284.6,295.8 303.6,295.8 313.1,312.2 294.1,312.2 				"/>
				<polygon class="st16" points="284.6,328.4 303.6,328.4 313.1,312 294.1,312 				"/>
				<polygon class="st16" points="303.4,295.8 322.3,295.8 331.8,312.2 312.9,312.2 				"/>
				<polygon class="st16" points="303.4,328.4 322.3,328.4 331.8,312 312.9,312 				"/>
				<polygon class="st16" points="322.1,295.8 341.1,295.8 350.6,312.2 331.6,312.2 				"/>
				<polygon class="st16" points="322.1,328.4 341.1,328.4 350.6,312 331.6,312 				"/>
				<polygon class="st17" points="-33.9,328.3 -15,328.3 -5.5,344.7 -24.5,344.7 				"/>
				<polygon class="st18" points="-33.9,360.9 -15,360.9 -5.5,344.5 -24.5,344.5 				"/>
				<polygon class="st17" points="-15.2,328.3 3.7,328.3 13.2,344.7 -5.7,344.7 				"/>
				<polygon class="st18" points="-15.2,360.9 3.7,360.9 13.2,344.5 -5.7,344.5 				"/>
				<polygon class="st17" points="3.5,328.3 22.5,328.3 32,344.7 13,344.7 				"/>
				<polygon class="st18" points="3.5,360.9 22.5,360.9 32,344.5 13,344.5 				"/>
				<polygon class="st19" points="22.3,328.3 41.2,328.3 50.7,344.7 31.8,344.7 				"/>
				<polygon class="st20" points="22.3,360.9 41.2,360.9 50.7,344.5 31.8,344.5 				"/>
				<polygon class="st21" points="41,328.3 60,328.3 69.4,344.7 50.5,344.7 				"/>
				<polygon class="st22" points="41,360.9 60,360.9 69.4,344.5 50.5,344.5 				"/>
				<polygon class="st23" points="59.8,328.3 78.7,328.3 88.2,344.7 69.2,344.7 				"/>
				<polygon class="st24" points="59.8,360.9 78.7,360.9 88.2,344.5 69.2,344.5 				"/>
				<polygon class="st25" points="78.5,328.3 97.4,328.3 106.9,344.7 88,344.7 				"/>
				<polygon class="st26" points="78.5,360.9 97.4,360.9 106.9,344.5 88,344.5 				"/>
				<polygon class="st27" points="97.2,328.3 116.2,328.3 125.7,344.7 106.7,344.7 				"/>
				<polygon class="st28" points="97.2,360.9 116.2,360.9 125.7,344.5 106.7,344.5 				"/>
				<polygon class="st29" points="116,328.3 134.9,328.3 144.4,344.7 125.5,344.7 				"/>
				<polygon class="st30" points="116,360.9 134.9,360.9 144.4,344.5 125.5,344.5 				"/>
				<polygon class="st31" points="134.7,328.3 153.7,328.3 163.1,344.7 144.2,344.7 				"/>
				<polygon class="st32" points="134.7,360.9 153.7,360.9 163.1,344.5 144.2,344.5 				"/>
				<polygon class="st33" points="153.5,328.3 172.4,328.3 181.9,344.7 162.9,344.7 				"/>
				<polygon class="st34" points="153.5,360.9 172.4,360.9 181.9,344.5 162.9,344.5 				"/>
				<polygon class="st35" points="172.2,328.3 191.2,328.3 200.6,344.7 181.7,344.7 				"/>
				<polygon class="st36" points="172.2,360.9 191.2,360.9 200.6,344.5 181.7,344.5 				"/>
				<polygon class="st37" points="190.9,328.3 209.9,328.3 219.4,344.7 200.4,344.7 				"/>
				<polygon class="st38" points="190.9,360.9 209.9,360.9 219.4,344.5 200.4,344.5 				"/>
				<polygon class="st39" points="209.7,328.3 228.6,328.3 238.1,344.7 219.2,344.7 				"/>
				<polygon class="st40" points="209.7,360.9 228.6,360.9 238.1,344.5 219.2,344.5 				"/>
				<polygon class="st41" points="228.4,328.3 247.4,328.3 256.8,344.7 237.9,344.7 				"/>
				<polygon class="st42" points="228.4,360.9 247.4,360.9 256.8,344.5 237.9,344.5 				"/>
				<polygon class="st43" points="247.2,328.3 266.1,328.3 275.6,344.7 256.6,344.7 				"/>
				<polygon class="st44" points="247.2,360.9 266.1,360.9 275.6,344.5 256.6,344.5 				"/>
				<polygon class="st45" points="265.9,328.3 284.9,328.3 294.3,344.7 275.4,344.7 				"/>
				<polygon class="st46" points="265.9,360.9 284.9,360.9 294.3,344.5 275.4,344.5 				"/>
				<polygon class="st45" points="284.6,328.3 303.6,328.3 313.1,344.7 294.1,344.7 				"/>
				<polygon class="st46" points="284.6,360.9 303.6,360.9 313.1,344.5 294.1,344.5 				"/>
				<polygon class="st45" points="303.4,328.3 322.3,328.3 331.8,344.7 312.9,344.7 				"/>
				<polygon class="st46" points="303.4,360.9 322.3,360.9 331.8,344.5 312.9,344.5 				"/>
				<polygon class="st45" points="322.1,328.3 341.1,328.3 350.6,344.7 331.6,344.7 				"/>
				<polygon class="st46" points="322.1,360.9 341.1,360.9 350.6,344.5 331.6,344.5 				"/>
				<polygon class="st47" points="-33.9,360.7 -15,360.7 -5.5,377.1 -24.5,377.1 				"/>
				<polygon class="st48" points="-33.9,393.4 -15,393.4 -5.5,377 -24.5,377 				"/>
				<polygon class="st47" points="-15.2,360.7 3.7,360.7 13.2,377.1 -5.7,377.1 				"/>
				<polygon class="st48" points="-15.2,393.4 3.7,393.4 13.2,377 -5.7,377 				"/>
				<polygon class="st47" points="3.5,360.7 22.5,360.7 32,377.1 13,377.1 				"/>
				<polygon class="st48" points="3.5,393.4 22.5,393.4 32,377 13,377 				"/>
				<polygon class="st49" points="22.3,360.7 41.2,360.7 50.7,377.1 31.8,377.1 				"/>
				<polygon class="st50" points="22.3,393.4 41.2,393.4 50.7,377 31.8,377 				"/>
				<polygon class="st51" points="41,360.7 60,360.7 69.4,377.1 50.5,377.1 				"/>
				<polygon class="st52" points="41,393.4 60,393.4 69.4,377 50.5,377 				"/>
				<polygon class="st53" points="59.8,360.7 78.7,360.7 88.2,377.1 69.2,377.1 				"/>
				<polygon class="st54" points="59.8,393.4 78.7,393.4 88.2,377 69.2,377 				"/>
				<polygon class="st55" points="78.5,360.7 97.4,360.7 106.9,377.1 88,377.1 				"/>
				<polygon class="st56" points="78.5,393.4 97.4,393.4 106.9,377 88,377 				"/>
				<polygon class="st57" points="97.2,360.7 116.2,360.7 125.7,377.1 106.7,377.1 				"/>
				<polygon class="st58" points="97.2,393.4 116.2,393.4 125.7,377 106.7,377 				"/>
				<polygon class="st59" points="116,360.7 134.9,360.7 144.4,377.1 125.5,377.1 				"/>
				<polygon class="st60" points="116,393.4 134.9,393.4 144.4,377 125.5,377 				"/>
				<polygon class="st61" points="134.7,360.7 153.7,360.7 163.1,377.1 144.2,377.1 				"/>
				<polygon class="st62" points="134.7,393.4 153.7,393.4 163.1,377 144.2,377 				"/>
				<polygon class="st63" points="153.5,360.7 172.4,360.7 181.9,377.1 162.9,377.1 				"/>
				<polygon class="st64" points="153.5,393.4 172.4,393.4 181.9,377 162.9,377 				"/>
				<polygon class="st65" points="172.2,360.7 191.2,360.7 200.6,377.1 181.7,377.1 				"/>
				<polygon class="st66" points="172.2,393.4 191.2,393.4 200.6,377 181.7,377 				"/>
				<polygon class="st67" points="190.9,360.7 209.9,360.7 219.4,377.1 200.4,377.1 				"/>
				<polygon class="st68" points="190.9,393.4 209.9,393.4 219.4,377 200.4,377 				"/>
				<polygon class="st69" points="209.7,360.7 228.6,360.7 238.1,377.1 219.2,377.1 				"/>
				<polygon class="st70" points="209.7,393.4 228.6,393.4 238.1,377 219.2,377 				"/>
				<polygon class="st71" points="228.4,360.7 247.4,360.7 256.8,377.1 237.9,377.1 				"/>
				<polygon class="st72" points="228.4,393.4 247.4,393.4 256.8,377 237.9,377 				"/>
				<polygon class="st73" points="247.2,360.7 266.1,360.7 275.6,377.1 256.6,377.1 				"/>
				<polygon class="st74" points="247.2,393.4 266.1,393.4 275.6,377 256.6,377 				"/>
				<polygon class="st75" points="265.9,360.7 284.9,360.7 294.3,377.1 275.4,377.1 				"/>
				<polygon class="st76" points="265.9,393.4 284.9,393.4 294.3,377 275.4,377 				"/>
				<polygon class="st75" points="284.6,360.7 303.6,360.7 313.1,377.1 294.1,377.1 				"/>
				<polygon class="st76" points="284.6,393.4 303.6,393.4 313.1,377 294.1,377 				"/>
				<polygon class="st75" points="303.4,360.7 322.3,360.7 331.8,377.1 312.9,377.1 				"/>
				<polygon class="st76" points="303.4,393.4 322.3,393.4 331.8,377 312.9,377 				"/>
				<polygon class="st75" points="322.1,360.7 341.1,360.7 350.6,377.1 331.6,377.1 				"/>
				<polygon class="st76" points="322.1,393.4 341.1,393.4 350.6,377 331.6,377 				"/>
				<polygon class="st77" points="-33.9,393.2 -15,393.2 -5.5,409.6 -24.5,409.6 				"/>
				<polygon class="st78" points="-33.9,425.8 -15,425.8 -5.5,409.4 -24.5,409.4 				"/>
				<polygon class="st77" points="-15.2,393.2 3.7,393.2 13.2,409.6 -5.7,409.6 				"/>
				<polygon class="st78" points="-15.2,425.8 3.7,425.8 13.2,409.4 -5.7,409.4 				"/>
				<polygon class="st77" points="3.5,393.2 22.5,393.2 32,409.6 13,409.6 				"/>
				<polygon class="st78" points="3.5,425.8 22.5,425.8 32,409.4 13,409.4 				"/>
				<polygon class="st79" points="22.3,393.2 41.2,393.2 50.7,409.6 31.8,409.6 				"/>
				<polygon class="st80" points="22.3,425.8 41.2,425.8 50.7,409.4 31.8,409.4 				"/>
				<polygon class="st81" points="41,393.2 60,393.2 69.4,409.6 50.5,409.6 				"/>
				<polygon class="st82" points="41,425.8 60,425.8 69.4,409.4 50.5,409.4 				"/>
				<polygon class="st83" points="59.8,393.2 78.7,393.2 88.2,409.6 69.2,409.6 				"/>
				<polygon class="st84" points="59.8,425.8 78.7,425.8 88.2,409.4 69.2,409.4 				"/>
				<polygon class="st85" points="78.5,393.2 97.4,393.2 106.9,409.6 88,409.6 				"/>
				<polygon class="st86" points="78.5,425.8 97.4,425.8 106.9,409.4 88,409.4 				"/>
				<polygon class="st87" points="97.2,393.2 116.2,393.2 125.7,409.6 106.7,409.6 				"/>
				<polygon class="st88" points="97.2,425.8 116.2,425.8 125.7,409.4 106.7,409.4 				"/>
				<polygon class="st89" points="116,393.2 134.9,393.2 144.4,409.6 125.5,409.6 				"/>
				<polygon class="st90" points="116,425.8 134.9,425.8 144.4,409.4 125.5,409.4 				"/>
				<polygon class="st91" points="134.7,393.2 153.7,393.2 163.1,409.6 144.2,409.6 				"/>
				<polygon class="st92" points="134.7,425.8 153.7,425.8 163.1,409.4 144.2,409.4 				"/>
				<polygon class="st93" points="153.5,393.2 172.4,393.2 181.9,409.6 162.9,409.6 				"/>
				<polygon class="st94" points="153.5,425.8 172.4,425.8 181.9,409.4 162.9,409.4 				"/>
				<polygon class="st95" points="172.2,393.2 191.2,393.2 200.6,409.6 181.7,409.6 				"/>
				<polygon class="st96" points="172.2,425.8 191.2,425.8 200.6,409.4 181.7,409.4 				"/>
				<polygon class="st97" points="190.9,393.2 209.9,393.2 219.4,409.6 200.4,409.6 				"/>
				<polygon class="st98" points="190.9,425.8 209.9,425.8 219.4,409.4 200.4,409.4 				"/>
				<polygon class="st99" points="209.7,393.2 228.6,393.2 238.1,409.6 219.2,409.6 				"/>
				<polygon class="st100" points="209.7,425.8 228.6,425.8 238.1,409.4 219.2,409.4 				"/>
				<polygon class="st101" points="228.4,393.2 247.4,393.2 256.8,409.6 237.9,409.6 				"/>
				<polygon class="st102" points="228.4,425.8 247.4,425.8 256.8,409.4 237.9,409.4 				"/>
				<polygon class="st103" points="247.2,393.2 266.1,393.2 275.6,409.6 256.6,409.6 				"/>
				<polygon class="st104" points="247.2,425.8 266.1,425.8 275.6,409.4 256.6,409.4 				"/>
				<polygon class="st105" points="265.9,393.2 284.9,393.2 294.3,409.6 275.4,409.6 				"/>
				<polygon class="st106" points="265.9,425.8 284.9,425.8 294.3,409.4 275.4,409.4 				"/>
				<polygon class="st105" points="284.6,393.2 303.6,393.2 313.1,409.6 294.1,409.6 				"/>
				<polygon class="st106" points="284.6,425.8 303.6,425.8 313.1,409.4 294.1,409.4 				"/>
				<polygon class="st105" points="303.4,393.2 322.3,393.2 331.8,409.6 312.9,409.6 				"/>
				<polygon class="st106" points="303.4,425.8 322.3,425.8 331.8,409.4 312.9,409.4 				"/>
				<polygon class="st105" points="322.1,393.2 341.1,393.2 350.6,409.6 331.6,409.6 				"/>
				<polygon class="st106" points="322.1,425.8 341.1,425.8 350.6,409.4 331.6,409.4 				"/>
				<polygon class="st107" points="-33.9,425.6 -15,425.6 -5.5,442.1 -24.5,442.1 				"/>
				<polygon class="st108" points="-33.9,458.3 -15,458.3 -5.5,441.9 -24.5,441.9 				"/>
				<polygon class="st107" points="-15.2,425.6 3.7,425.6 13.2,442.1 -5.7,442.1 				"/>
				<polygon class="st108" points="-15.2,458.3 3.7,458.3 13.2,441.9 -5.7,441.9 				"/>
				<polygon class="st107" points="3.5,425.6 22.5,425.6 32,442.1 13,442.1 				"/>
				<polygon class="st108" points="3.5,458.3 22.5,458.3 32,441.9 13,441.9 				"/>
				<polygon class="st109" points="22.3,425.6 41.2,425.6 50.7,442.1 31.8,442.1 				"/>
				<polygon class="st110" points="22.3,458.3 41.2,458.3 50.7,441.9 31.8,441.9 				"/>
				<polygon class="st111" points="41,425.6 60,425.6 69.4,442.1 50.5,442.1 				"/>
				<polygon class="st112" points="41,458.3 60,458.3 69.4,441.9 50.5,441.9 				"/>
				<polygon class="st113" points="59.8,425.6 78.7,425.6 88.2,442.1 69.2,442.1 				"/>
				<polygon class="st114" points="59.8,458.3 78.7,458.3 88.2,441.9 69.2,441.9 				"/>
				<polygon class="st115" points="78.5,425.6 97.4,425.6 106.9,442.1 88,442.1 				"/>
				<polygon class="st116" points="78.5,458.3 97.4,458.3 106.9,441.9 88,441.9 				"/>
				<polygon class="st117" points="97.2,425.6 116.2,425.6 125.7,442.1 106.7,442.1 				"/>
				<polygon class="st118" points="97.2,458.3 116.2,458.3 125.7,441.9 106.7,441.9 				"/>
				<polygon class="st119" points="116,425.6 134.9,425.6 144.4,442.1 125.5,442.1 				"/>
				<polygon class="st120" points="116,458.3 134.9,458.3 144.4,441.9 125.5,441.9 				"/>
				<polygon class="st121" points="134.7,425.6 153.7,425.6 163.1,442.1 144.2,442.1 				"/>
				<polygon class="st122" points="134.7,458.3 153.7,458.3 163.1,441.9 144.2,441.9 				"/>
				<polygon class="st123" points="153.5,425.6 172.4,425.6 181.9,442.1 162.9,442.1 				"/>
				<polygon class="st124" points="153.5,458.3 172.4,458.3 181.9,441.9 162.9,441.9 				"/>
				<polygon class="st125" points="172.2,425.6 191.2,425.6 200.6,442.1 181.7,442.1 				"/>
				<polygon class="st126" points="172.2,458.3 191.2,458.3 200.6,441.9 181.7,441.9 				"/>
				<polygon class="st127" points="190.9,425.6 209.9,425.6 219.4,442.1 200.4,442.1 				"/>
				<polygon class="st128" points="190.9,458.3 209.9,458.3 219.4,441.9 200.4,441.9 				"/>
				<polygon class="st129" points="209.7,425.6 228.6,425.6 238.1,442.1 219.2,442.1 				"/>
				<polygon class="st130" points="209.7,458.3 228.6,458.3 238.1,441.9 219.2,441.9 				"/>
				<polygon class="st131" points="228.4,425.6 247.4,425.6 256.8,442.1 237.9,442.1 				"/>
				<polygon class="st132" points="228.4,458.3 247.4,458.3 256.8,441.9 237.9,441.9 				"/>
				<polygon class="st133" points="247.2,425.6 266.1,425.6 275.6,442.1 256.6,442.1 				"/>
				<polygon class="st134" points="247.2,458.3 266.1,458.3 275.6,441.9 256.6,441.9 				"/>
				<polygon class="st135" points="265.9,425.6 284.9,425.6 294.3,442.1 275.4,442.1 				"/>
				<polygon class="st136" points="265.9,458.3 284.9,458.3 294.3,441.9 275.4,441.9 				"/>
				<polygon class="st135" points="284.6,425.6 303.6,425.6 313.1,442.1 294.1,442.1 				"/>
				<polygon class="st136" points="284.6,458.3 303.6,458.3 313.1,441.9 294.1,441.9 				"/>
				<polygon class="st135" points="303.4,425.6 322.3,425.6 331.8,442.1 312.9,442.1 				"/>
				<polygon class="st136" points="303.4,458.3 322.3,458.3 331.8,441.9 312.9,441.9 				"/>
				<polygon class="st135" points="322.1,425.6 341.1,425.6 350.6,442.1 331.6,442.1 				"/>
				<polygon class="st136" points="322.1,458.3 341.1,458.3 350.6,441.9 331.6,441.9 				"/>
				<polygon class="st137" points="-33.9,458.1 -15,458.1 -5.5,474.5 -24.5,474.5 				"/>
				<polygon class="st138" points="-33.9,490.7 -15,490.7 -5.5,474.3 -24.5,474.3 				"/>
				<polygon class="st137" points="-15.2,458.1 3.7,458.1 13.2,474.5 -5.7,474.5 				"/>
				<polygon class="st138" points="-15.2,490.7 3.7,490.7 13.2,474.3 -5.7,474.3 				"/>
				<polygon class="st137" points="3.5,458.1 22.5,458.1 32,474.5 13,474.5 				"/>
				<polygon class="st138" points="3.5,490.7 22.5,490.7 32,474.3 13,474.3 				"/>
				<polygon class="st139" points="22.3,458.1 41.2,458.1 50.7,474.5 31.8,474.5 				"/>
				<polygon class="st140" points="22.3,490.7 41.2,490.7 50.7,474.3 31.8,474.3 				"/>
				<polygon class="st141" points="41,458.1 60,458.1 69.4,474.5 50.5,474.5 				"/>
				<polygon class="st142" points="41,490.7 60,490.7 69.4,474.3 50.5,474.3 				"/>
				<polygon class="st143" points="59.8,458.1 78.7,458.1 88.2,474.5 69.2,474.5 				"/>
				<polygon class="st144" points="59.8,490.7 78.7,490.7 88.2,474.3 69.2,474.3 				"/>
				<polygon class="st145" points="78.5,458.1 97.4,458.1 106.9,474.5 88,474.5 				"/>
				<polygon class="st146" points="78.5,490.7 97.4,490.7 106.9,474.3 88,474.3 				"/>
				<polygon class="st147" points="97.2,458.1 116.2,458.1 125.7,474.5 106.7,474.5 				"/>
				<polygon class="st148" points="97.2,490.7 116.2,490.7 125.7,474.3 106.7,474.3 				"/>
				<polygon class="st149" points="116,458.1 134.9,458.1 144.4,474.5 125.5,474.5 				"/>
				<polygon class="st150" points="116,490.7 134.9,490.7 144.4,474.3 125.5,474.3 				"/>
				<polygon class="st151" points="134.7,458.1 153.7,458.1 163.1,474.5 144.2,474.5 				"/>
				<polygon class="st152" points="134.7,490.7 153.7,490.7 163.1,474.3 144.2,474.3 				"/>
				<polygon class="st153" points="153.5,458.1 172.4,458.1 181.9,474.5 162.9,474.5 				"/>
				<polygon class="st154" points="153.5,490.7 172.4,490.7 181.9,474.3 162.9,474.3 				"/>
				<polygon class="st155" points="172.2,458.1 191.2,458.1 200.6,474.5 181.7,474.5 				"/>
				<polygon class="st156" points="172.2,490.7 191.2,490.7 200.6,474.3 181.7,474.3 				"/>
				<polygon class="st157" points="190.9,458.1 209.9,458.1 219.4,474.5 200.4,474.5 				"/>
				<polygon class="st158" points="190.9,490.7 209.9,490.7 219.4,474.3 200.4,474.3 				"/>
				<polygon class="st159" points="209.7,458.1 228.6,458.1 238.1,474.5 219.2,474.5 				"/>
				<polygon class="st160" points="209.7,490.7 228.6,490.7 238.1,474.3 219.2,474.3 				"/>
				<polygon class="st161" points="228.4,458.1 247.4,458.1 256.8,474.5 237.9,474.5 				"/>
				<polygon class="st162" points="228.4,490.7 247.4,490.7 256.8,474.3 237.9,474.3 				"/>
				<polygon class="st163" points="247.2,458.1 266.1,458.1 275.6,474.5 256.6,474.5 				"/>
				<polygon class="st164" points="247.2,490.7 266.1,490.7 275.6,474.3 256.6,474.3 				"/>
				<polygon class="st165" points="265.9,458.1 284.9,458.1 294.3,474.5 275.4,474.5 				"/>
				<polygon class="st166" points="265.9,490.7 284.9,490.7 294.3,474.3 275.4,474.3 				"/>
				<polygon class="st165" points="284.6,458.1 303.6,458.1 313.1,474.5 294.1,474.5 				"/>
				<polygon class="st166" points="284.6,490.7 303.6,490.7 313.1,474.3 294.1,474.3 				"/>
				<polygon class="st165" points="303.4,458.1 322.3,458.1 331.8,474.5 312.9,474.5 				"/>
				<polygon class="st166" points="303.4,490.7 322.3,490.7 331.8,474.3 312.9,474.3 				"/>
				<polygon class="st165" points="322.1,458.1 341.1,458.1 350.6,474.5 331.6,474.5 				"/>
				<polygon class="st166" points="322.1,490.7 341.1,490.7 350.6,474.3 331.6,474.3 				"/>
				<polygon class="st167" points="-33.9,490.6 -15,490.6 -5.5,507 -24.5,507 				"/>
				<polygon class="st168" points="-33.9,523.2 -15,523.2 -5.5,506.8 -24.5,506.8 				"/>
				<polygon class="st167" points="-15.2,490.6 3.7,490.6 13.2,507 -5.7,507 				"/>
				<polygon class="st168" points="-15.2,523.2 3.7,523.2 13.2,506.8 -5.7,506.8 				"/>
				<polygon class="st167" points="3.5,490.6 22.5,490.6 32,507 13,507 				"/>
				<polygon class="st168" points="3.5,523.2 22.5,523.2 32,506.8 13,506.8 				"/>
				<polygon class="st169" points="22.3,490.6 41.2,490.6 50.7,507 31.8,507 				"/>
				<polygon class="st170" points="22.3,523.2 41.2,523.2 50.7,506.8 31.8,506.8 				"/>
				<polygon class="st171" points="41,490.6 60,490.6 69.4,507 50.5,507 				"/>
				<polygon class="st172" points="41,523.2 60,523.2 69.4,506.8 50.5,506.8 				"/>
				<polygon class="st173" points="59.8,490.6 78.7,490.6 88.2,507 69.2,507 				"/>
				<polygon class="st174" points="59.8,523.2 78.7,523.2 88.2,506.8 69.2,506.8 				"/>
				<polygon class="st175" points="78.5,490.6 97.4,490.6 106.9,507 88,507 				"/>
				<polygon class="st176" points="78.5,523.2 97.4,523.2 106.9,506.8 88,506.8 				"/>
				<polygon class="st177" points="97.2,490.6 116.2,490.6 125.7,507 106.7,507 				"/>
				<polygon class="st178" points="97.2,523.2 116.2,523.2 125.7,506.8 106.7,506.8 				"/>
				<polygon class="st179" points="116,490.6 134.9,490.6 144.4,507 125.5,507 				"/>
				<polygon class="st180" points="116,523.2 134.9,523.2 144.4,506.8 125.5,506.8 				"/>
				<polygon class="st181" points="134.7,490.6 153.7,490.6 163.1,507 144.2,507 				"/>
				<polygon class="st182" points="134.7,523.2 153.7,523.2 163.1,506.8 144.2,506.8 				"/>
				<polygon class="st183" points="153.5,490.6 172.4,490.6 181.9,507 162.9,507 				"/>
				<polygon class="st184" points="153.5,523.2 172.4,523.2 181.9,506.8 162.9,506.8 				"/>
				<polygon class="st185" points="172.2,490.6 191.2,490.6 200.6,507 181.7,507 				"/>
				<polygon class="st186" points="172.2,523.2 191.2,523.2 200.6,506.8 181.7,506.8 				"/>
				<polygon class="st187" points="190.9,490.6 209.9,490.6 219.4,507 200.4,507 				"/>
				<polygon class="st188" points="190.9,523.2 209.9,523.2 219.4,506.8 200.4,506.8 				"/>
				<polygon class="st189" points="209.7,490.6 228.6,490.6 238.1,507 219.2,507 				"/>
				<polygon class="st190" points="209.7,523.2 228.6,523.2 238.1,506.8 219.2,506.8 				"/>
				<polygon class="st191" points="228.4,490.6 247.4,490.6 256.8,507 237.9,507 				"/>
				<polygon class="st192" points="228.4,523.2 247.4,523.2 256.8,506.8 237.9,506.8 				"/>
				<polygon class="st193" points="247.2,490.6 266.1,490.6 275.6,507 256.6,507 				"/>
				<polygon class="st194" points="247.2,523.2 266.1,523.2 275.6,506.8 256.6,506.8 				"/>
				<polygon class="st195" points="265.9,490.6 284.9,490.6 294.3,507 275.4,507 				"/>
				<polygon class="st196" points="265.9,523.2 284.9,523.2 294.3,506.8 275.4,506.8 				"/>
				<polygon class="st195" points="284.6,490.6 303.6,490.6 313.1,507 294.1,507 				"/>
				<polygon class="st196" points="284.6,523.2 303.6,523.2 313.1,506.8 294.1,506.8 				"/>
				<polygon class="st195" points="303.4,490.6 322.3,490.6 331.8,507 312.9,507 				"/>
				<polygon class="st196" points="303.4,523.2 322.3,523.2 331.8,506.8 312.9,506.8 				"/>
				<polygon class="st195" points="322.1,490.6 341.1,490.6 350.6,507 331.6,507 				"/>
				<polygon class="st196" points="322.1,523.2 341.1,523.2 350.6,506.8 331.6,506.8 				"/>
				<polygon class="st197" points="-33.9,523 -15,523 -5.5,539.4 -24.5,539.4 				"/>
				<polygon class="st198" points="-33.9,555.7 -15,555.7 -5.5,539.3 -24.5,539.3 				"/>
				<polygon class="st197" points="-15.2,523 3.7,523 13.2,539.4 -5.7,539.4 				"/>
				<polygon class="st198" points="-15.2,555.7 3.7,555.7 13.2,539.3 -5.7,539.3 				"/>
				<polygon class="st197" points="3.5,523 22.5,523 32,539.4 13,539.4 				"/>
				<polygon class="st198" points="3.5,555.7 22.5,555.7 32,539.3 13,539.3 				"/>
				<polygon class="st199" points="22.3,523 41.2,523 50.7,539.4 31.8,539.4 				"/>
				<polygon class="st200" points="22.3,555.7 41.2,555.7 50.7,539.3 31.8,539.3 				"/>
				<polygon class="st201" points="41,523 60,523 69.4,539.4 50.5,539.4 				"/>
				<polygon class="st202" points="41,555.7 60,555.7 69.4,539.3 50.5,539.3 				"/>
				<polygon class="st203" points="59.8,523 78.7,523 88.2,539.4 69.2,539.4 				"/>
				<polygon class="st204" points="59.8,555.7 78.7,555.7 88.2,539.3 69.2,539.3 				"/>
				<polygon class="st205" points="78.5,523 97.4,523 106.9,539.4 88,539.4 				"/>
				<polygon class="st206" points="78.5,555.7 97.4,555.7 106.9,539.3 88,539.3 				"/>
				<polygon class="st207" points="97.2,523 116.2,523 125.7,539.4 106.7,539.4 				"/>
				<polygon class="st208" points="97.2,555.7 116.2,555.7 125.7,539.3 106.7,539.3 				"/>
				<polygon class="st209" points="116,523 134.9,523 144.4,539.4 125.5,539.4 				"/>
				<polygon class="st210" points="116,555.7 134.9,555.7 144.4,539.3 125.5,539.3 				"/>
				<polygon class="st211" points="134.7,523 153.7,523 163.1,539.4 144.2,539.4 				"/>
				<polygon class="st212" points="134.7,555.7 153.7,555.7 163.1,539.3 144.2,539.3 				"/>
				<polygon class="st213" points="153.5,523 172.4,523 181.9,539.4 162.9,539.4 				"/>
				<polygon class="st214" points="153.5,555.7 172.4,555.7 181.9,539.3 162.9,539.3 				"/>
				<polygon class="st215" points="172.2,523 191.2,523 200.6,539.4 181.7,539.4 				"/>
				<polygon class="st216" points="172.2,555.7 191.2,555.7 200.6,539.3 181.7,539.3 				"/>
				<polygon class="st217" points="190.9,523 209.9,523 219.4,539.4 200.4,539.4 				"/>
				<polygon class="st218" points="190.9,555.7 209.9,555.7 219.4,539.3 200.4,539.3 				"/>
				<polygon class="st219" points="209.7,523 228.6,523 238.1,539.4 219.2,539.4 				"/>
				<polygon class="st220" points="209.7,555.7 228.6,555.7 238.1,539.3 219.2,539.3 				"/>
				<polygon class="st221" points="228.4,523 247.4,523 256.8,539.4 237.9,539.4 				"/>
				<polygon class="st222" points="228.4,555.7 247.4,555.7 256.8,539.3 237.9,539.3 				"/>
				<polygon class="st223" points="247.2,523 266.1,523 275.6,539.4 256.6,539.4 				"/>
				<polygon class="st224" points="247.2,555.7 266.1,555.7 275.6,539.3 256.6,539.3 				"/>
				<polygon class="st225" points="265.9,523 284.9,523 294.3,539.4 275.4,539.4 				"/>
				<polygon class="st226" points="265.9,555.7 284.9,555.7 294.3,539.3 275.4,539.3 				"/>
				<polygon class="st225" points="284.6,523 303.6,523 313.1,539.4 294.1,539.4 				"/>
				<polygon class="st226" points="284.6,555.7 303.6,555.7 313.1,539.3 294.1,539.3 				"/>
				<polygon class="st225" points="303.4,523 322.3,523 331.8,539.4 312.9,539.4 				"/>
				<polygon class="st226" points="303.4,555.7 322.3,555.7 331.8,539.3 312.9,539.3 				"/>
				<polygon class="st225" points="322.1,523 341.1,523 350.6,539.4 331.6,539.4 				"/>
				<polygon class="st226" points="322.1,555.7 341.1,555.7 350.6,539.3 331.6,539.3 				"/>
				<polygon class="st227" points="-33.9,555.5 -15,555.5 -5.5,571.9 -24.5,571.9 				"/>
				<polygon class="st228" points="-33.9,588.1 -15,588.1 -5.5,571.7 -24.5,571.7 				"/>
				<polygon class="st227" points="-15.2,555.5 3.7,555.5 13.2,571.9 -5.7,571.9 				"/>
				<polygon class="st228" points="-15.2,588.1 3.7,588.1 13.2,571.7 -5.7,571.7 				"/>
				<polygon class="st227" points="3.5,555.5 22.5,555.5 32,571.9 13,571.9 				"/>
				<polygon class="st228" points="3.5,588.1 22.5,588.1 32,571.7 13,571.7 				"/>
				<polygon class="st229" points="22.3,555.5 41.2,555.5 50.7,571.9 31.8,571.9 				"/>
				<polygon class="st230" points="22.3,588.1 41.2,588.1 50.7,571.7 31.8,571.7 				"/>
				<polygon class="st231" points="41,555.5 60,555.5 69.4,571.9 50.5,571.9 				"/>
				<polygon class="st232" points="41,588.1 60,588.1 69.4,571.7 50.5,571.7 				"/>
				<polygon class="st233" points="59.8,555.5 78.7,555.5 88.2,571.9 69.2,571.9 				"/>
				<polygon class="st234" points="59.8,588.1 78.7,588.1 88.2,571.7 69.2,571.7 				"/>
				<polygon class="st235" points="78.5,555.5 97.4,555.5 106.9,571.9 88,571.9 				"/>
				<polygon class="st236" points="78.5,588.1 97.4,588.1 106.9,571.7 88,571.7 				"/>
				<polygon class="st237" points="97.2,555.5 116.2,555.5 125.7,571.9 106.7,571.9 				"/>
				<polygon class="st238" points="97.2,588.1 116.2,588.1 125.7,571.7 106.7,571.7 				"/>
				<polygon class="st239" points="116,555.5 134.9,555.5 144.4,571.9 125.5,571.9 				"/>
				<polygon class="st240" points="116,588.1 134.9,588.1 144.4,571.7 125.5,571.7 				"/>
				<polygon class="st241" points="134.7,555.5 153.7,555.5 163.1,571.9 144.2,571.9 				"/>
				<polygon class="st242" points="134.7,588.1 153.7,588.1 163.1,571.7 144.2,571.7 				"/>
				<polygon class="st243" points="153.5,555.5 172.4,555.5 181.9,571.9 162.9,571.9 				"/>
				<polygon class="st244" points="153.5,588.1 172.4,588.1 181.9,571.7 162.9,571.7 				"/>
				<polygon class="st245" points="172.2,555.5 191.2,555.5 200.6,571.9 181.7,571.9 				"/>
				<polygon class="st246" points="172.2,588.1 191.2,588.1 200.6,571.7 181.7,571.7 				"/>
				<polygon class="st247" points="190.9,555.5 209.9,555.5 219.4,571.9 200.4,571.9 				"/>
				<polygon class="st248" points="190.9,588.1 209.9,588.1 219.4,571.7 200.4,571.7 				"/>
				<polygon class="st249" points="209.7,555.5 228.6,555.5 238.1,571.9 219.2,571.9 				"/>
				<polygon class="st250" points="209.7,588.1 228.6,588.1 238.1,571.7 219.2,571.7 				"/>
				<polygon class="st251" points="228.4,555.5 247.4,555.5 256.8,571.9 237.9,571.9 				"/>
				<polygon class="st252" points="228.4,588.1 247.4,588.1 256.8,571.7 237.9,571.7 				"/>
				<polygon class="st253" points="247.2,555.5 266.1,555.5 275.6,571.9 256.6,571.9 				"/>
				<polygon class="st254" points="247.2,588.1 266.1,588.1 275.6,571.7 256.6,571.7 				"/>
				<polygon class="st255" points="265.9,555.5 284.9,555.5 294.3,571.9 275.4,571.9 				"/>
				<polygon class="st256" points="265.9,588.1 284.9,588.1 294.3,571.7 275.4,571.7 				"/>
				<polygon class="st255" points="284.6,555.5 303.6,555.5 313.1,571.9 294.1,571.9 				"/>
				<polygon class="st256" points="284.6,588.1 303.6,588.1 313.1,571.7 294.1,571.7 				"/>
				<polygon class="st255" points="303.4,555.5 322.3,555.5 331.8,571.9 312.9,571.9 				"/>
				<polygon class="st256" points="303.4,588.1 322.3,588.1 331.8,571.7 312.9,571.7 				"/>
				<polygon class="st255" points="322.1,555.5 341.1,555.5 350.6,571.9 331.6,571.9 				"/>
				<polygon class="st256" points="322.1,588.1 341.1,588.1 350.6,571.7 331.6,571.7 				"/>
				<polygon class="st257" points="-33.9,587.9 -15,587.9 -5.5,604.4 -24.5,604.4 				"/>
				<polygon class="st257" points="-33.9,620.6 -15,620.6 -5.5,604.2 -24.5,604.2 				"/>
				<polygon class="st257" points="-15.2,587.9 3.7,587.9 13.2,604.4 -5.7,604.4 				"/>
				<polygon class="st257" points="-15.2,620.6 3.7,620.6 13.2,604.2 -5.7,604.2 				"/>
				<polygon class="st257" points="3.5,587.9 22.5,587.9 32,604.4 13,604.4 				"/>
				<polygon class="st257" points="3.5,620.6 22.5,620.6 32,604.2 13,604.2 				"/>
				<polygon class="st258" points="22.3,587.9 41.2,587.9 50.7,604.4 31.8,604.4 				"/>
				<polygon class="st258" points="22.3,620.6 41.2,620.6 50.7,604.2 31.8,604.2 				"/>
				<polygon class="st259" points="41,587.9 60,587.9 69.4,604.4 50.5,604.4 				"/>
				<polygon class="st259" points="41,620.6 60,620.6 69.4,604.2 50.5,604.2 				"/>
				<polygon class="st260" points="59.8,587.9 78.7,587.9 88.2,604.4 69.2,604.4 				"/>
				<polygon class="st260" points="59.8,620.6 78.7,620.6 88.2,604.2 69.2,604.2 				"/>
				<polygon class="st261" points="78.5,587.9 97.4,587.9 106.9,604.4 88,604.4 				"/>
				<polygon class="st261" points="78.5,620.6 97.4,620.6 106.9,604.2 88,604.2 				"/>
				<polygon class="st262" points="97.2,587.9 116.2,587.9 125.7,604.4 106.7,604.4 				"/>
				<polygon class="st262" points="97.2,620.6 116.2,620.6 125.7,604.2 106.7,604.2 				"/>
				<polygon class="st263" points="116,587.9 134.9,587.9 144.4,604.4 125.5,604.4 				"/>
				<polygon class="st263" points="116,620.6 134.9,620.6 144.4,604.2 125.5,604.2 				"/>
				<polygon class="st264" points="134.7,587.9 153.7,587.9 163.1,604.4 144.2,604.4 				"/>
				<polygon class="st264" points="134.7,620.6 153.7,620.6 163.1,604.2 144.2,604.2 				"/>
				<polygon class="st265" points="153.5,587.9 172.4,587.9 181.9,604.4 162.9,604.4 				"/>
				<polygon class="st265" points="153.5,620.6 172.4,620.6 181.9,604.2 162.9,604.2 				"/>
				<polygon class="st266" points="172.2,587.9 191.2,587.9 200.6,604.4 181.7,604.4 				"/>
				<polygon class="st266" points="172.2,620.6 191.2,620.6 200.6,604.2 181.7,604.2 				"/>
				<polygon class="st267" points="190.9,587.9 209.9,587.9 219.4,604.4 200.4,604.4 				"/>
				<polygon class="st267" points="190.9,620.6 209.9,620.6 219.4,604.2 200.4,604.2 				"/>
				<polygon class="st268" points="209.7,587.9 228.6,587.9 238.1,604.4 219.2,604.4 				"/>
				<polygon class="st268" points="209.7,620.6 228.6,620.6 238.1,604.2 219.2,604.2 				"/>
				<polygon class="st269" points="228.4,587.9 247.4,587.9 256.8,604.4 237.9,604.4 				"/>
				<polygon class="st269" points="228.4,620.6 247.4,620.6 256.8,604.2 237.9,604.2 				"/>
				<polygon class="st270" points="247.2,587.9 266.1,587.9 275.6,604.4 256.6,604.4 				"/>
				<polygon class="st270" points="247.2,620.6 266.1,620.6 275.6,604.2 256.6,604.2 				"/>
				<polygon class="st271" points="265.9,587.9 284.9,587.9 294.3,604.4 275.4,604.4 				"/>
				<polygon class="st271" points="265.9,620.6 284.9,620.6 294.3,604.2 275.4,604.2 				"/>
				<polygon class="st271" points="284.6,587.9 303.6,587.9 313.1,604.4 294.1,604.4 				"/>
				<polygon class="st271" points="284.6,620.6 303.6,620.6 313.1,604.2 294.1,604.2 				"/>
				<polygon class="st271" points="303.4,587.9 322.3,587.9 331.8,604.4 312.9,604.4 				"/>
				<polygon class="st271" points="303.4,620.6 322.3,620.6 331.8,604.2 312.9,604.2 				"/>
				<polygon class="st271" points="322.1,587.9 341.1,587.9 350.6,604.4 331.6,604.4 				"/>
				<polygon class="st271" points="322.1,620.6 341.1,620.6 350.6,604.2 331.6,604.2 				"/>
				<polygon class="st257" points="-33.9,620.4 -15,620.4 -5.5,636.8 -24.5,636.8 				"/>
				<polygon class="st257" points="-15.2,620.4 3.7,620.4 13.2,636.8 -5.7,636.8 				"/>
				<polygon class="st257" points="3.5,620.4 22.5,620.4 32,636.8 13,636.8 				"/>
				<polygon class="st258" points="22.3,620.4 41.2,620.4 50.7,636.8 31.8,636.8 				"/>
				<polygon class="st259" points="41,620.4 60,620.4 69.4,636.8 50.5,636.8 				"/>
				<polygon class="st260" points="59.8,620.4 78.7,620.4 88.2,636.8 69.2,636.8 				"/>
				<polygon class="st261" points="78.5,620.4 97.4,620.4 106.9,636.8 88,636.8 				"/>
				<polygon class="st262" points="97.2,620.4 116.2,620.4 125.7,636.8 106.7,636.8 				"/>
				<polygon class="st263" points="116,620.4 134.9,620.4 144.4,636.8 125.5,636.8 				"/>
				<polygon class="st264" points="134.7,620.4 153.7,620.4 163.1,636.8 144.2,636.8 				"/>
				<polygon class="st265" points="153.5,620.4 172.4,620.4 181.9,636.8 162.9,636.8 				"/>
				<polygon class="st266" points="172.2,620.4 191.2,620.4 200.6,636.8 181.7,636.8 				"/>
				<polygon class="st267" points="190.9,620.4 209.9,620.4 219.4,636.8 200.4,636.8 				"/>
				<polygon class="st268" points="209.7,620.4 228.6,620.4 238.1,636.8 219.2,636.8 				"/>
				<polygon class="st269" points="228.4,620.4 247.4,620.4 256.8,636.8 237.9,636.8 				"/>
				<polygon class="st270" points="247.2,620.4 266.1,620.4 275.6,636.8 256.6,636.8 				"/>
				<polygon class="st271" points="265.9,620.4 284.9,620.4 294.3,636.8 275.4,636.8 				"/>
				<polygon class="st271" points="284.6,620.4 303.6,620.4 313.1,636.8 294.1,636.8 				"/>
				<polygon class="st271" points="303.4,620.4 322.3,620.4 331.8,636.8 312.9,636.8 				"/>
				<polygon class="st271" points="322.1,620.4 341.1,620.4 350.6,636.8 331.6,636.8 				"/>
			</g>
		</g>
		<g>
			<defs>
				<rect id="SVGID_00000151527362551283394580000010587185471445929109_" y="321.6" width="288" height="288"/>
			</defs>
			<clipPath id="SVGID_00000054244986038725851500000005134384040694555524_">
				<use xlink:href="#SVGID_00000151527362551283394580000010587185471445929109_"  style="overflow:visible;"/>
			</clipPath>
		</g>
	</g>
	<g>
		<rect x="99.3" y="439.3" class="st272" width="89.5" height="52.6"/>
		<path class="st273" d="M98.4,438.2V493h91.2v-54.7H98.4z M188.2,491.4H99.8v-51.6h88.4V491.4z"/>
		<g>
			<defs>
				<path id="SVGID_00000182524464453580745680000008378611705281823410_" d="M98.4,438.2V493h91.2v-54.7H98.4z M208.8,505.6H79.2
					v-80.1h129.6V505.6z"/>
			</defs>
			<clipPath id="SVGID_00000101062238709020897660000017252087515772238466_">
				<use xlink:href="#SVGID_00000182524464453580745680000008378611705281823410_"  style="overflow:visible;"/>
			</clipPath>
			<g style="opacity:0.4;clip-path:url(#SVGID_00000101062238709020897660000017252087515772238466_);">
				
					<image style="overflow:visible;" width="221" height="145" xlink:href="1E14D667.png"  transform="matrix(0.48 0 0 0.48 87.8086 433.8894)">
				</image>
			</g>
		</g>
		<g>
			<g>
				<path class="st273" d="M114.2,462.9h-4.7l-1.1,2.9h-0.9l3.9-10.3h0.8l3.9,10.3h-0.9L114.2,462.9z M109.7,462.1h4.2l-2.1-5.6h0
					L109.7,462.1z"/>
				<path class="st273" d="M117.7,465.7v-10.3h3c1.1,0,1.9,0.2,2.5,0.7c0.6,0.5,0.9,1.1,0.9,2c0,0.5-0.2,1-0.5,1.4
					c-0.3,0.4-0.7,0.7-1.2,0.8c0.6,0.1,1.1,0.4,1.5,0.9c0.4,0.5,0.6,1,0.6,1.7c0,0.9-0.3,1.6-0.9,2.1c-0.6,0.5-1.4,0.7-2.4,0.7
					H117.7z M118.6,460h2.4c0.7,0,1.3-0.2,1.7-0.5c0.4-0.3,0.6-0.8,0.6-1.5c0-0.7-0.2-1.1-0.7-1.5c-0.4-0.3-1.1-0.5-1.9-0.5h-2.2
					V460z M118.6,460.8v4.3h2.7c0.8,0,1.4-0.2,1.8-0.6c0.4-0.4,0.7-0.9,0.7-1.6c0-0.6-0.2-1.1-0.6-1.5c-0.4-0.4-1-0.6-1.7-0.6H118.6
					z"/>
				<path class="st273" d="M132.7,463.2c0-0.6-0.2-1-0.6-1.4c-0.4-0.4-1.2-0.7-2.2-0.9c-1.1-0.3-2-0.7-2.6-1.1
					c-0.6-0.5-0.9-1.1-0.9-1.8c0-0.8,0.3-1.4,1-1.9c0.7-0.5,1.5-0.7,2.5-0.7c1.1,0,1.9,0.3,2.6,0.9c0.7,0.6,1,1.3,1,2.2l0,0h-0.8
					c0-0.7-0.2-1.3-0.7-1.7c-0.5-0.4-1.2-0.7-2-0.7c-0.8,0-1.5,0.2-1.9,0.6c-0.5,0.4-0.7,0.8-0.7,1.4c0,0.5,0.2,1,0.6,1.3
					c0.4,0.3,1.2,0.7,2.2,0.9c1.1,0.3,2,0.7,2.5,1.2c0.6,0.5,0.9,1.1,0.9,1.9c0,0.8-0.3,1.5-1,2c-0.7,0.5-1.5,0.7-2.6,0.7
					c-1,0-1.9-0.3-2.7-0.8c-0.8-0.5-1.1-1.3-1.1-2.3l0,0h0.8c0,0.8,0.3,1.4,0.9,1.8c0.6,0.4,1.3,0.6,2.1,0.6c0.8,0,1.5-0.2,2-0.5
					C132.4,464.3,132.7,463.8,132.7,463.2z"/>
				<path class="st273" d="M142.4,456.1h-3.6v9.6H138v-9.6h-3.6v-0.7h8V456.1z"/>
				<path class="st273" d="M144.9,461.1v4.7h-0.8v-10.3h3.5c1.1,0,2,0.2,2.6,0.7c0.6,0.5,0.9,1.2,0.9,2.1c0,0.5-0.2,1-0.5,1.5
					c-0.3,0.4-0.8,0.8-1.3,0.9c0.6,0.2,1.1,0.4,1.4,0.9c0.3,0.4,0.4,0.9,0.4,1.6v1c0,0.3,0,0.6,0.1,0.9c0.1,0.3,0.2,0.5,0.4,0.6v0.2
					h-0.9c-0.2-0.2-0.3-0.4-0.4-0.7c-0.1-0.3-0.1-0.6-0.1-1v-0.9c0-0.6-0.2-1.1-0.6-1.5c-0.4-0.4-1-0.6-1.7-0.6H144.9z M144.9,460.3
					h2.6c0.9,0,1.6-0.2,2-0.6c0.4-0.4,0.6-0.9,0.6-1.5c0-0.7-0.2-1.2-0.6-1.6c-0.4-0.4-1.1-0.6-1.9-0.6h-2.7V460.3z"/>
				<path class="st273" d="M159.3,462.9h-4.7l-1.1,2.9h-0.9l3.9-10.3h0.8l3.9,10.3h-0.9L159.3,462.9z M154.8,462.1h4.2l-2.1-5.6h0
					L154.8,462.1z"/>
				<path class="st273" d="M169.8,462.5L169.8,462.5c-0.1,1.1-0.4,1.9-1.1,2.5c-0.6,0.6-1.5,0.9-2.6,0.9c-1.2,0-2.1-0.4-2.8-1.2
					c-0.7-0.8-1.1-1.9-1.1-3.2v-1.7c0-1.3,0.4-2.4,1.1-3.2c0.7-0.8,1.6-1.3,2.8-1.3c1.1,0,2,0.3,2.6,0.9c0.6,0.6,1,1.4,1.1,2.5l0,0
					H169c-0.1-0.9-0.4-1.5-0.9-2c-0.5-0.5-1.2-0.7-2-0.7c-0.9,0-1.6,0.4-2.2,1.1c-0.5,0.7-0.8,1.6-0.8,2.7v1.7c0,1.1,0.3,2,0.8,2.7
					c0.5,0.7,1.3,1,2.2,1c0.9,0,1.5-0.2,2-0.7c0.5-0.4,0.8-1.1,0.9-2H169.8z"/>
				<path class="st273" d="M178.8,456.1h-3.6v9.6h-0.9v-9.6h-3.6v-0.7h8V456.1z"/>
			</g>
			<g>
				<path class="st273" d="M115.6,477v-6.5h1.4c0.3,0,0.6,0,0.8,0.1c0.2,0.1,0.4,0.2,0.6,0.3c0.2,0.1,0.3,0.3,0.4,0.5
					c0.1,0.2,0.1,0.5,0.1,0.7c0,0.4-0.1,0.7-0.3,0.9c-0.2,0.2-0.4,0.4-0.8,0.5c0.4,0.1,0.7,0.3,0.9,0.6c0.2,0.2,0.3,0.6,0.3,1.1
					c0,0.6-0.2,1-0.5,1.4c-0.3,0.3-0.8,0.5-1.4,0.5H115.6z M116.5,473.3h0.5c0.8,0,1.2-0.4,1.2-1.2c0-0.1,0-0.2,0-0.3
					c0-0.1-0.1-0.2-0.1-0.2c0-0.1-0.1-0.1-0.2-0.2c-0.1,0-0.2-0.1-0.2-0.1c-0.1,0-0.2,0-0.3-0.1c-0.1,0-0.2,0-0.3,0
					c-0.1,0-0.2,0-0.4,0V473.3z M116.5,476.3h0.5c0.4,0,0.7-0.1,0.9-0.3c0.2-0.2,0.3-0.5,0.3-0.9c0-0.4-0.1-0.7-0.3-0.9
					c-0.2-0.2-0.5-0.3-0.9-0.3h-0.5V476.3z"/>
				<path class="st273" d="M120.8,477l1.4-6.5h0.9l1.4,6.5h-0.9l-0.3-1.6h-1.2l-0.3,1.6H120.8z M122.2,474.7h0.9l-0.5-2.8
					L122.2,474.7z"/>
				<path class="st273" d="M128.2,477.1c-0.3,0-0.5,0-0.7-0.1c-0.2-0.1-0.4-0.2-0.5-0.3c-0.1-0.1-0.2-0.3-0.3-0.5
					c-0.1-0.2-0.1-0.4-0.2-0.7c0-0.2-0.1-0.5-0.1-0.8v-1.9c0-0.3,0-0.6,0.1-0.8c0-0.2,0.1-0.5,0.2-0.7c0.1-0.2,0.2-0.4,0.3-0.5
					c0.1-0.1,0.3-0.2,0.5-0.3c0.2-0.1,0.5-0.1,0.7-0.1c0.3,0,0.6,0,0.8,0.1c0.2,0.1,0.4,0.2,0.5,0.4c0.1,0.2,0.2,0.4,0.3,0.6
					c0.1,0.2,0.1,0.5,0.1,0.8c0,0,0,0.1,0,0.2H129v-0.2c0-0.1,0-0.2,0-0.3c0-0.1,0-0.2,0-0.3c0-0.1,0-0.2-0.1-0.2
					c0-0.1-0.1-0.1-0.1-0.2c-0.1-0.1-0.1-0.1-0.2-0.1c-0.1,0-0.2,0-0.3,0c-0.2,0-0.3,0-0.4,0.1c-0.1,0-0.2,0.1-0.3,0.2
					c-0.1,0.1-0.1,0.2-0.1,0.3c0,0.1-0.1,0.3-0.1,0.4c0,0.1,0,0.3,0,0.5v2.3c0,0.2,0,0.3,0,0.4c0,0.1,0,0.3,0.1,0.4
					c0,0.1,0.1,0.2,0.2,0.3c0.1,0.1,0.1,0.2,0.2,0.2c0.1,0.1,0.2,0.1,0.4,0.1c0.1,0,0.3,0,0.4-0.1c0.1-0.1,0.2-0.1,0.2-0.2
					c0.1-0.1,0.1-0.2,0.1-0.3c0-0.1,0.1-0.3,0.1-0.4c0-0.1,0-0.3,0-0.4v-0.2h0.9v0.2c0,0.3,0,0.6-0.1,0.9c-0.1,0.3-0.2,0.5-0.3,0.7
					c-0.1,0.2-0.3,0.3-0.5,0.4C128.8,477,128.5,477.1,128.2,477.1z"/>
				<path class="st273" d="M132.1,477v-6.5h0.9v2.8l1.4-2.8h1.2l-1.4,2.6l1.6,4h-1.2l-1.2-3l-0.5,0.9v2.1H132.1z"/>
				<path class="st273" d="M139.2,477.1c-0.3,0-0.6,0-0.8-0.1c-0.2-0.1-0.4-0.2-0.5-0.3c-0.1-0.1-0.2-0.3-0.3-0.6
					c-0.1-0.2-0.1-0.5-0.2-0.7c0-0.2,0-0.5,0-0.9v-1.7c0-1.6,0.6-2.4,1.9-2.4c0.3,0,0.6,0,0.8,0.1c0.2,0.1,0.4,0.2,0.5,0.4
					c0.1,0.2,0.2,0.4,0.3,0.6c0.1,0.2,0.1,0.5,0.1,0.8c0,0,0,0.1,0,0.2h-0.9v-0.2c0-0.2,0-0.3,0-0.4c0-0.1,0-0.2-0.1-0.3
					c0-0.1-0.1-0.2-0.1-0.3c-0.1-0.1-0.1-0.1-0.2-0.2c-0.1,0-0.2-0.1-0.4-0.1c-0.2,0-0.3,0-0.5,0.1c-0.1,0.1-0.2,0.2-0.3,0.3
					c-0.1,0.1-0.1,0.3-0.1,0.4c0,0.2,0,0.3,0,0.6v2.1c0,0.2,0,0.3,0,0.4c0,0.1,0,0.3,0,0.4c0,0.1,0.1,0.2,0.1,0.3
					c0,0.1,0.1,0.2,0.2,0.3c0.1,0.1,0.2,0.1,0.3,0.2c0.1,0,0.2,0.1,0.3,0.1c0.2,0,0.3,0,0.4-0.1c0.1-0.1,0.2-0.1,0.3-0.2
					c0.1-0.1,0.1-0.2,0.2-0.4c0-0.1,0.1-0.3,0.1-0.4c0-0.1,0-0.3,0-0.5v-0.2h-0.9v-0.7h1.9v3.3h-0.7l-0.2-0.7
					C140,476.8,139.7,477.1,139.2,477.1z"/>
				<path class="st273" d="M143.3,477v-6.5h1.2c0.7,0,1.2,0.1,1.6,0.4c0.4,0.3,0.5,0.7,0.5,1.3c0,0.4-0.1,0.7-0.2,1
					c-0.1,0.3-0.3,0.4-0.6,0.5l1,3.3h-0.9l-0.9-3h-0.7v3H143.3z M144.3,473.3h0.2c0.4,0,0.7-0.1,0.9-0.2c0.2-0.2,0.3-0.4,0.3-0.8
					c0-0.4-0.1-0.6-0.3-0.8c-0.2-0.2-0.5-0.2-0.9-0.2h-0.2V473.3z"/>
				<path class="st273" d="M150.6,477.1c-0.3,0-0.6,0-0.8-0.1c-0.2-0.1-0.4-0.2-0.6-0.4c-0.1-0.2-0.2-0.4-0.3-0.7
					c-0.1-0.3-0.1-0.6-0.1-0.9v-2.4c0-0.3,0-0.6,0.1-0.9c0.1-0.3,0.2-0.5,0.3-0.7c0.1-0.2,0.3-0.3,0.6-0.4c0.2-0.1,0.5-0.1,0.8-0.1
					c0.6,0,1.1,0.2,1.4,0.5c0.3,0.4,0.4,0.9,0.4,1.6v2.4c0,0.3,0,0.6-0.1,0.9c-0.1,0.3-0.2,0.5-0.3,0.7c-0.1,0.2-0.3,0.3-0.6,0.4
					C151.2,477,150.9,477.1,150.6,477.1z M149.9,476c0.1,0.2,0.4,0.3,0.7,0.3c0.3,0,0.6-0.1,0.7-0.3c0.1-0.2,0.2-0.5,0.2-0.9v-2.8
					c0-0.4-0.1-0.7-0.2-0.8c-0.1-0.2-0.4-0.3-0.7-0.3c-0.3,0-0.6,0.1-0.7,0.3c-0.1,0.2-0.2,0.5-0.2,0.8v2.8
					C149.7,475.5,149.7,475.8,149.9,476z"/>
				<path class="st273" d="M157.2,477c-0.2,0.1-0.5,0.1-0.8,0.1c-0.3,0-0.5,0-0.8-0.1c-0.2-0.1-0.4-0.2-0.5-0.3
					c-0.1-0.1-0.3-0.3-0.3-0.5c-0.1-0.2-0.1-0.4-0.2-0.7c0-0.2-0.1-0.5-0.1-0.8v-4.2h0.9v4.2c0,0.2,0,0.4,0,0.5c0,0.1,0,0.3,0.1,0.4
					c0,0.2,0.1,0.3,0.2,0.4c0.1,0.1,0.2,0.2,0.3,0.2c0.1,0.1,0.3,0.1,0.4,0.1c0.2,0,0.3,0,0.4-0.1c0.1-0.1,0.2-0.1,0.3-0.2
					c0.1-0.1,0.1-0.2,0.2-0.4c0-0.2,0.1-0.3,0.1-0.4c0-0.1,0-0.3,0-0.5v-4.2h0.9v4.2c0,0.3,0,0.6-0.1,0.8c0,0.2-0.1,0.5-0.2,0.7
					c-0.1,0.2-0.2,0.4-0.3,0.5C157.6,476.8,157.4,476.9,157.2,477z"/>
				<path class="st273" d="M160.7,477v-6.5h0.7l1.6,4v-4h0.9v6.5h-0.7l-1.7-4.3v4.3H160.7z"/>
				<path class="st273" d="M166.4,477v-6.5h1.4c0.7,0,1.2,0.1,1.4,0.4c0.3,0.3,0.4,0.8,0.4,1.4v2.6c0,0.7-0.1,1.2-0.4,1.6
					c-0.3,0.3-0.8,0.5-1.4,0.5H166.4z M167.3,476.3h0.5c0.2,0,0.3,0,0.4,0c0.1,0,0.2-0.1,0.3-0.2c0.1-0.1,0.1-0.1,0.2-0.2
					c0-0.1,0.1-0.2,0.1-0.3c0-0.1,0-0.3,0-0.3c0-0.1,0-0.2,0-0.4c0-0.1,0-0.1,0-0.1v-2.1c0-0.1,0-0.2,0-0.3c0-0.1,0-0.2,0-0.2
					c0-0.1,0-0.2,0-0.2c0-0.1,0-0.1-0.1-0.2c0-0.1,0-0.1-0.1-0.2c0,0-0.1-0.1-0.1-0.1c0,0-0.1-0.1-0.2-0.1c-0.1,0-0.1,0-0.2-0.1
					c-0.1,0-0.2,0-0.3,0h-0.5V476.3z"/>
			</g>
		</g>
	</g>
</g>
<g>
	<defs>
		<rect id="SVGID_00000025436438938870146920000008587312249608012475_" x="0" y="0" width="288" height="288"/>
	</defs>
	<clipPath id="SVGID_00000111154460552077037230000011494175133645790081_">
		<use xlink:href="#SVGID_00000025436438938870146920000008587312249608012475_"  style="overflow:visible;"/>
	</clipPath>
	<g style="clip-path:url(#SVGID_00000111154460552077037230000011494175133645790081_);">
		<rect x="0" class="st273" width="288" height="288"/>
		<g>
			<g>
				<defs>
					<rect id="SVGID_00000085973231016571595850000002695180181513091504_" x="-2.8" y="0" width="290.8" height="288"/>
				</defs>
				<clipPath id="SVGID_00000036246733722294311240000001306603486641876609_">
					<use xlink:href="#SVGID_00000085973231016571595850000002695180181513091504_"  style="overflow:visible;"/>
				</clipPath>
			</g>
			<g>
				<g>
					<defs>
						<rect id="SVGID_00000020380422559911855370000007159870960221242241_" x="-2.8" y="0" width="290.8" height="288"/>
					</defs>
					<clipPath id="SVGID_00000110467350849461407360000008664240342892015780_">
						<use xlink:href="#SVGID_00000020380422559911855370000007159870960221242241_"  style="overflow:visible;"/>
					</clipPath>
				</g>
				<g>
					<defs>
						<rect id="SVGID_00000093892165515560623770000007520121199200678534_" x="-2.8" y="0" width="290.8" height="288"/>
					</defs>
					<clipPath id="SVGID_00000143586822310075937830000006284543002881526662_">
						<use xlink:href="#SVGID_00000093892165515560623770000007520121199200678534_"  style="overflow:visible;"/>
					</clipPath>
					<g style="clip-path:url(#SVGID_00000143586822310075937830000006284543002881526662_);">
						<g>
							<polygon class="st273" points="-23.4,297.1 2.9,283.4 2.9,253.2 -23.4,266.9 							"/>
							<polygon class="st273" points="31.5,298.5 31.5,268.3 2.5,253.2 2.5,283.4 							"/>
							<polygon class="st273" points="-23.4,267.2 2.9,253.5 2.9,223.3 -23.4,237 							"/>
							<polygon class="st273" points="31.5,268.6 31.5,238.4 2.5,223.3 2.5,253.5 							"/>
							<polygon class="st273" points="-23.4,237.3 2.9,223.6 2.9,193.4 -23.4,207.1 							"/>
							<polygon class="st273" points="31.5,238.7 31.5,208.5 2.5,193.4 2.5,223.6 							"/>
							<polygon class="st273" points="-23.4,207.4 2.9,193.8 2.9,163.5 -23.4,177.2 							"/>
							<polygon class="st273" points="31.5,208.9 31.5,178.6 2.5,163.5 2.5,193.8 							"/>
							<polygon class="st273" points="-23.4,177.6 2.9,163.9 2.9,133.7 -23.4,147.4 							"/>
							<polygon class="st273" points="31.5,179 31.5,148.8 2.5,133.7 2.5,163.9 							"/>
							<polygon class="st273" points="-23.4,147.7 2.9,134 2.9,103.8 -23.4,117.5 							"/>
							<polygon class="st273" points="31.5,149.1 31.5,118.9 2.5,103.8 2.5,134 							"/>
							<polygon class="st273" points="-23.4,117.8 2.9,104.1 2.9,73.9 -23.4,87.6 							"/>
							<polygon class="st273" points="31.5,119.2 31.5,89 2.5,73.9 2.5,104.1 							"/>
							<polygon class="st273" points="-23.4,87.9 2.9,74.3 2.9,44 -23.4,57.7 							"/>
							<polygon class="st273" points="31.5,89.4 31.5,59.2 2.5,44 2.5,74.3 							"/>
							<polygon class="st273" points="-23.4,58.1 2.9,44.4 2.9,14.2 -23.4,27.9 							"/>
							<polygon class="st277" points="31.5,59.5 31.5,29.3 2.5,14.2 2.5,44.4 							"/>
							<polygon class="st273" points="-23.4,28.2 2.9,14.5 2.9,-9.8 -8.5,-9.8 -23.4,-2 							"/>
							<polygon class="st278" points="31.5,-0.6 13.9,-9.8 2.5,-9.8 2.5,14.5 31.5,29.6 							"/>
							<polygon class="st273" points="-23.4,-1.7 -7.8,-9.8 -23.4,-9.8 							"/>
							<polygon class="st279" points="31.5,-9.8 13.2,-9.8 31.5,-0.3 							"/>
							<polygon class="st273" points="31.2,298.5 31.2,268.3 60.1,253.2 60.1,283.4 							"/>
							<polygon class="st273" points="88.7,298.5 88.7,268.3 59.8,253.2 59.8,283.4 							"/>
							<polygon class="st273" points="31.2,268.6 31.2,238.4 60.1,223.3 60.1,253.5 							"/>
							<polygon class="st273" points="88.7,268.6 88.7,238.4 59.8,223.3 59.8,253.5 							"/>
							<polygon class="st273" points="31.2,238.7 31.2,208.5 60.1,193.4 60.1,223.6 							"/>
							<polygon class="st280" points="88.7,238.7 88.7,208.5 59.8,193.4 59.8,223.6 							"/>
							<polygon class="st273" points="31.2,208.9 31.2,178.6 60.1,163.5 60.1,193.8 							"/>
							<polygon class="st281" points="88.7,208.9 88.7,178.6 59.8,163.5 59.8,193.8 							"/>
							<polygon class="st273" points="31.2,179 31.2,148.8 60.1,133.7 60.1,163.9 							"/>
							<polygon class="st282" points="88.7,179 88.7,148.8 59.8,133.7 59.8,163.9 							"/>
							<polygon class="st283" points="31.2,149.1 31.2,118.9 60.1,103.8 60.1,134 							"/>
							<polygon class="st282" points="88.7,149.1 88.7,118.9 59.8,103.8 59.8,134 							"/>
							<polygon class="st280" points="31.2,119.2 31.2,89 60.1,73.9 60.1,104.1 							"/>
							<polygon class="st284" points="88.7,119.2 88.7,89 59.8,73.9 59.8,104.1 							"/>
							<polygon class="st285" points="31.2,89.4 31.2,59.2 60.1,44 60.1,74.3 							"/>
							<polygon class="st286" points="88.7,89.4 88.7,59.2 59.8,44 59.8,74.3 							"/>
							<polygon class="st287" points="31.2,59.5 31.2,29.3 60.1,14.2 60.1,44.4 							"/>
							<polygon class="st288" points="88.7,59.5 88.7,29.3 59.8,14.2 59.8,44.4 							"/>
							<polygon class="st289" points="60.1,14.5 60.1,-9.8 48.8,-9.8 31.2,-0.6 31.2,29.6 							"/>
							<polygon class="st290" points="88.7,-0.6 71.1,-9.8 59.8,-9.8 59.8,14.5 88.7,29.6 							"/>
							<polygon class="st291" points="49.4,-9.8 31.2,-9.8 31.2,-0.3 							"/>
							<polygon class="st292" points="88.7,-9.8 70.5,-9.8 88.7,-0.3 							"/>
							<polygon class="st273" points="88.4,298.5 88.4,268.3 117.4,253.2 117.4,283.4 							"/>
							<polygon class="st273" points="146,298.5 146,268.3 117.1,253.2 117.1,283.4 							"/>
							<polygon class="st273" points="88.4,268.6 88.4,238.4 117.4,223.3 117.4,253.5 							"/>
							<polygon class="st273" points="146,268.6 146,238.4 117.1,223.3 117.1,253.5 							"/>
							<polygon class="st273" points="88.4,238.7 88.4,208.5 117.4,193.4 117.4,223.6 							"/>
							<polygon class="st283" points="146,238.7 146,208.5 117.1,193.4 117.1,223.6 							"/>
							<polygon class="st293" points="88.4,208.9 88.4,178.6 117.4,163.5 117.4,193.8 							"/>
							<polygon class="st294" points="146,208.9 146,178.6 117.1,163.5 117.1,193.8 							"/>
							<polygon class="st293" points="88.4,179 88.4,148.8 117.4,133.7 117.4,163.9 							"/>
							<polygon class="st293" points="146,179 146,148.8 117.1,133.7 117.1,163.9 							"/>
							<polygon class="st282" points="88.4,149.1 88.4,118.9 117.4,103.8 117.4,134 							"/>
							<polygon class="st295" points="146,149.1 146,118.9 117.1,103.8 117.1,134 							"/>
							<polygon class="st296" points="88.4,119.2 88.4,89 117.4,73.9 117.4,104.1 							"/>
							<polygon class="st297" points="146,119.2 146,89 117.1,73.9 117.1,104.1 							"/>
							<polygon class="st298" points="88.4,89.4 88.4,59.2 117.4,44 117.4,74.3 							"/>
							<polygon class="st299" points="146,89.4 146,59.2 117.1,44 117.1,74.3 							"/>
							<polygon class="st290" points="88.4,59.5 88.4,29.3 117.4,14.2 117.4,44.4 							"/>
							<polygon class="st292" points="146,59.5 146,29.3 117.1,14.2 117.1,44.4 							"/>
							<polygon class="st300" points="117.4,14.5 117.4,-9.8 106,-9.8 88.4,-0.6 88.4,29.6 							"/>
							<polygon class="st301" points="146,-0.6 128.4,-9.8 117.1,-9.8 117.1,14.5 146,29.6 							"/>
							<polygon class="st302" points="106.7,-9.8 88.4,-9.8 88.4,-0.3 							"/>
							<polygon class="st303" points="146,-9.8 127.7,-9.8 146,-0.3 							"/>
							<polygon class="st273" points="145.7,298.5 145.7,268.3 174.6,253.2 174.6,283.4 							"/>
							<polygon class="st273" points="203.2,298.5 203.2,268.3 174.3,253.2 174.3,283.4 							"/>
							<polygon class="st273" points="145.7,268.6 145.7,238.4 174.6,223.3 174.6,253.5 							"/>
							<polygon class="st273" points="203.2,268.6 203.2,238.4 174.3,223.3 174.3,253.5 							"/>
							<polygon class="st273" points="145.7,238.7 145.7,208.5 174.6,193.4 174.6,223.6 							"/>
							<polygon class="st273" points="203.2,238.7 203.2,208.5 174.3,193.4 174.3,223.6 							"/>
							<polygon class="st304" points="145.7,208.9 145.7,178.6 174.6,163.5 174.6,193.8 							"/>
							<polygon class="st273" points="203.2,208.9 203.2,178.6 174.3,163.5 174.3,193.8 							"/>
							<polygon class="st305" points="145.7,179 145.7,148.8 174.6,133.7 174.6,163.9 							"/>
							<polygon class="st284" points="203.2,179 203.2,148.8 174.3,133.7 174.3,163.9 							"/>
							<polygon class="st284" points="145.7,149.1 145.7,118.9 174.6,103.8 174.6,134 							"/>
							<polygon class="st306" points="203.2,149.1 203.2,118.9 174.3,103.8 174.3,134 							"/>
							<polygon class="st307" points="145.7,119.2 145.7,89 174.6,73.9 174.6,104.1 							"/>
							<polygon class="st285" points="203.2,119.2 203.2,89 174.3,73.9 174.3,104.1 							"/>
							<polygon class="st308" points="145.7,89.4 145.7,59.2 174.6,44 174.6,74.3 							"/>
							<polygon class="st279" points="203.2,89.4 203.2,59.2 174.3,44 174.3,74.3 							"/>
							<polygon class="st279" points="145.7,59.5 145.7,29.3 174.6,14.2 174.6,44.4 							"/>
							<polygon class="st309" points="203.2,59.5 203.2,29.3 174.3,14.2 174.3,44.4 							"/>
							<polygon class="st310" points="174.6,14.5 174.6,-9.8 163.3,-9.8 145.7,-0.6 145.7,29.6 							"/>
							<polygon class="st311" points="203.2,-0.6 185.6,-9.8 174.3,-9.8 174.3,14.5 203.2,29.6 							"/>
							<polygon class="st312" points="163.9,-9.8 145.7,-9.8 145.7,-0.3 							"/>
							<polygon class="st303" points="203.2,-9.8 185,-9.8 203.2,-0.3 							"/>
							<polygon class="st273" points="202.9,298.5 202.9,268.3 231.9,253.2 231.9,283.4 							"/>
							<polygon class="st313" points="260.5,298.5 260.5,268.3 231.6,253.2 231.6,283.4 							"/>
							<polygon class="st273" points="202.9,268.6 202.9,238.4 231.9,223.3 231.9,253.5 							"/>
							<polygon class="st313" points="260.5,268.6 260.5,238.4 231.6,223.3 231.6,253.5 							"/>
							<polygon class="st305" points="202.9,238.7 202.9,208.5 231.9,193.4 231.9,223.6 							"/>
							<polygon class="st314" points="260.5,238.7 260.5,208.5 231.6,193.4 231.6,223.6 							"/>
							<polygon class="st296" points="202.9,208.9 202.9,178.6 231.9,163.5 231.9,193.8 							"/>
							<polygon class="st293" points="260.5,208.9 260.5,178.6 231.6,163.5 231.6,193.8 							"/>
							<polygon class="st315" points="202.9,179 202.9,148.8 231.9,133.7 231.9,163.9 							"/>
							<polygon class="st316" points="260.5,179 260.5,148.8 231.6,133.7 231.6,163.9 							"/>
							<polygon class="st315" points="202.9,149.1 202.9,118.9 231.9,103.8 231.9,134 							"/>
							<polygon class="st317" points="260.5,149.1 260.5,118.9 231.6,103.8 231.6,134 							"/>
							<polygon class="st318" points="202.9,119.2 202.9,89 231.9,73.9 231.9,104.1 							"/>
							<polygon class="st287" points="260.5,119.2 260.5,89 231.6,73.9 231.6,104.1 							"/>
							<polygon class="st307" points="202.9,89.4 202.9,59.2 231.9,44 231.9,74.3 							"/>
							<polygon class="st279" points="260.5,89.4 260.5,59.2 231.6,44 231.6,74.3 							"/>
							<polygon class="st291" points="202.9,59.5 202.9,29.3 231.9,14.2 231.9,44.4 							"/>
							<polygon class="st319" points="260.5,59.5 260.5,29.3 231.6,14.2 231.6,44.4 							"/>
							<polygon class="st320" points="231.9,14.5 231.9,-9.8 220.5,-9.8 202.9,-0.6 202.9,29.6 							"/>
							<polygon class="st320" points="260.5,-0.6 242.9,-9.8 231.6,-9.8 231.6,14.5 260.5,29.6 							"/>
							<polygon class="st321" points="221.2,-9.8 202.9,-9.8 202.9,-0.3 							"/>
							<polygon class="st322" points="260.5,-9.8 242.2,-9.8 260.5,-0.3 							"/>
							<polygon class="st273" points="260.2,298.5 260.2,268.3 289.1,253.2 289.1,283.4 							"/>
							<polygon class="st273" points="315.2,266.9 288.8,253.2 288.8,283.4 315.2,297.2 							"/>
							<polygon class="st273" points="260.2,268.6 260.2,238.4 289.1,223.3 289.1,253.5 							"/>
							<polygon class="st273" points="315.2,237.1 288.8,223.3 288.8,253.5 315.2,267.3 							"/>
							<polygon class="st273" points="260.2,238.7 260.2,208.5 289.1,193.4 289.1,223.6 							"/>
							<polygon class="st273" points="315.2,207.2 288.8,193.4 288.8,223.6 315.2,237.4 							"/>
							<polygon class="st273" points="260.2,208.9 260.2,178.6 289.1,163.5 289.1,193.8 							"/>
							<polygon class="st273" points="315.2,177.3 288.8,163.5 288.8,193.8 315.2,207.5 							"/>
							<polygon class="st273" points="260.2,179 260.2,148.8 289.1,133.7 289.1,163.9 							"/>
							<polygon class="st273" points="315.2,147.5 288.8,133.7 288.8,163.9 315.2,177.7 							"/>
							<polygon class="st273" points="260.2,149.1 260.2,118.9 289.1,103.8 289.1,134 							"/>
							<polygon class="st273" points="315.2,117.6 288.8,103.8 288.8,134 315.2,147.8 							"/>
							<polygon class="st314" points="260.2,119.2 260.2,89 289.1,73.9 289.1,104.1 							"/>
							<polygon class="st273" points="315.2,87.7 288.8,73.9 288.8,104.1 315.2,117.9 							"/>
							<polygon class="st295" points="260.2,89.4 260.2,59.2 289.1,44 289.1,74.3 							"/>
							<polygon class="st273" points="315.2,57.8 288.8,44 288.8,74.3 315.2,88 							"/>
							<polygon class="st317" points="260.2,59.5 260.2,29.3 289.1,14.2 289.1,44.4 							"/>
							<polygon class="st273" points="315.2,28 288.8,14.2 288.8,44.4 315.2,58.2 							"/>
							<polygon class="st287" points="289.1,14.5 289.1,-9.8 277.8,-9.8 260.2,-0.6 260.2,29.6 							"/>
							<polygon class="st314" points="315.2,-1.9 300.1,-9.8 288.8,-9.8 288.8,14.5 315.2,28.3 							"/>
							<polygon class="st287" points="278.4,-9.8 260.2,-9.8 260.2,-0.3 							"/>
							<polygon class="st297" points="315.2,-9.8 299.5,-9.8 315.2,-1.6 							"/>
						</g>
						<g>
							<polygon class="st273" points="-23.4,307.3 -0.1,295.2 -0.1,264.3 -23.4,276.5 							"/>
							<polygon class="st273" points="29.1,310.6 29.1,279.8 -0.4,264.3 -0.4,295.2 							"/>
							<polygon class="st273" points="-23.4,276.8 -0.1,264.7 -0.1,233.9 -23.4,246 							"/>
							<polygon class="st273" points="29.1,280.1 29.1,249.3 -0.4,233.9 -0.4,264.7 							"/>
							<polygon class="st273" points="-23.4,246.3 -0.1,234.2 -0.1,203.4 -23.4,215.5 							"/>
							<polygon class="st273" points="29.1,249.6 29.1,218.8 -0.4,203.4 -0.4,234.2 							"/>
							<polygon class="st273" points="-23.4,215.8 -0.1,203.7 -0.1,172.9 -23.4,185 							"/>
							<polygon class="st273" points="29.1,219.1 29.1,188.3 -0.4,172.9 -0.4,203.7 							"/>
							<polygon class="st273" points="-23.4,185.3 -0.1,173.2 -0.1,142.4 -23.4,154.5 							"/>
							<polygon class="st273" points="29.1,188.6 29.1,157.8 -0.4,142.4 -0.4,173.2 							"/>
							<polygon class="st273" points="-23.4,154.8 -0.1,142.7 -0.1,111.9 -23.4,124 							"/>
							<polygon class="st273" points="29.1,158.1 29.1,127.3 -0.4,111.9 -0.4,142.7 							"/>
							<polygon class="st273" points="-23.4,124.3 -0.1,112.2 -0.1,81.4 -23.4,93.5 							"/>
							<polygon class="st282" points="29.1,127.6 29.1,96.8 -0.4,81.4 -0.4,112.2 							"/>
							<polygon class="st273" points="-23.4,93.8 -0.1,81.7 -0.1,50.9 -23.4,63 							"/>
							<polygon class="st298" points="29.1,97.1 29.1,66.3 -0.4,50.9 -0.4,81.7 							"/>
							<polygon class="st273" points="-23.4,63.4 -0.1,51.2 -0.1,20.4 -23.4,32.5 							"/>
							<polygon class="st289" points="29.1,66.6 29.1,35.8 -0.4,20.4 -0.4,51.2 							"/>
							<polygon class="st273" points="-23.4,32.9 -0.1,20.7 -0.1,-9.8 -0.7,-9.8 -23.4,2 							"/>
							<polygon class="st278" points="29.1,5.3 0.2,-9.8 -0.4,-9.8 -0.4,20.7 29.1,36.1 							"/>
							<polygon class="st273" points="-23.4,2.4 -0.1,-9.8 -0.1,-9.8 -23.4,-9.8 							"/>
							<polygon class="st279" points="29.1,-9.8 -0.4,-9.8 -0.4,-9.8 29.1,5.6 							"/>
							<polygon class="st273" points="28.8,310.6 28.8,279.8 58.3,264.3 58.3,295.2 							"/>
							<polygon class="st273" points="87.6,310.6 87.6,279.8 58,264.3 58,295.2 							"/>
							<polygon class="st273" points="28.8,280.1 28.8,249.3 58.3,233.9 58.3,264.7 							"/>
							<polygon class="st273" points="87.6,280.1 87.6,249.3 58,233.9 58,264.7 							"/>
							<polygon class="st273" points="28.8,249.6 28.8,218.8 58.3,203.4 58.3,234.2 							"/>
							<polygon class="st280" points="87.6,249.6 87.6,218.8 58,203.4 58,234.2 							"/>
							<polygon class="st273" points="28.8,219.1 28.8,188.3 58.3,172.9 58.3,203.7 							"/>
							<polygon class="st273" points="87.6,219.1 87.6,188.3 58,172.9 58,203.7 							"/>
							<polygon class="st273" points="28.8,188.6 28.8,157.8 58.3,142.4 58.3,173.2 							"/>
							<polygon class="st273" points="87.6,188.6 87.6,157.8 58,142.4 58,173.2 							"/>
							<polygon class="st283" points="28.8,158.1 28.8,127.3 58.3,111.9 58.3,142.7 							"/>
							<polygon class="st282" points="87.6,158.1 87.6,127.3 58,111.9 58,142.7 							"/>
							<polygon class="st293" points="28.8,127.6 28.8,96.8 58.3,81.4 58.3,112.2 							"/>
							<polygon class="st284" points="87.6,127.6 87.6,96.8 58,81.4 58,112.2 							"/>
							<polygon class="st285" points="28.8,97.1 28.8,66.3 58.3,50.9 58.3,81.7 							"/>
							<polygon class="st286" points="87.6,97.1 87.6,66.3 58,50.9 58,81.7 							"/>
							<polygon class="st287" points="28.8,66.6 28.8,35.8 58.3,20.4 58.3,51.2 							"/>
							<polygon class="st288" points="87.6,66.6 87.6,35.8 58,20.4 58,51.2 							"/>
							<polygon class="st289" points="58.3,20.7 58.3,-9.8 57.7,-9.8 28.8,5.3 28.8,36.1 							"/>
							<polygon class="st290" points="87.6,5.3 58.6,-9.8 58,-9.8 58,20.7 87.6,36.1 							"/>
							<polygon class="st291" points="28.8,-9.8 28.8,5.6 58.3,-9.8 58.3,-9.8 							"/>
							<polygon class="st292" points="87.6,-9.8 58,-9.8 58,-9.8 87.6,5.6 							"/>
							<polygon class="st273" points="87.2,310.6 87.2,279.8 116.8,264.3 116.8,295.2 							"/>
							<polygon class="st273" points="146,310.6 146,279.8 116.5,264.3 116.5,295.2 							"/>
							<polygon class="st273" points="87.2,280.1 87.2,249.3 116.8,233.9 116.8,264.7 							"/>
							<polygon class="st273" points="146,280.1 146,249.3 116.5,233.9 116.5,264.7 							"/>
							<polygon class="st273" points="87.2,249.6 87.2,218.8 116.8,203.4 116.8,234.2 							"/>
							<polygon class="st283" points="146,249.6 146,218.8 116.5,203.4 116.5,234.2 							"/>
							<polygon class="st273" points="87.2,219.1 87.2,188.3 116.8,172.9 116.8,203.7 							"/>
							<polygon class="st294" points="146,219.1 146,188.3 116.5,172.9 116.5,203.7 							"/>
							<polygon class="st273" points="87.2,188.6 87.2,157.8 116.8,142.4 116.8,173.2 							"/>
							<polygon class="st293" points="146,188.6 146,157.8 116.5,142.4 116.5,173.2 							"/>
							<polygon class="st282" points="87.2,158.1 87.2,127.3 116.8,111.9 116.8,142.7 							"/>
							<polygon class="st295" points="146,158.1 146,127.3 116.5,111.9 116.5,142.7 							"/>
							<polygon class="st296" points="87.2,127.6 87.2,96.8 116.8,81.4 116.8,112.2 							"/>
							<polygon class="st297" points="146,127.6 146,96.8 116.5,81.4 116.5,112.2 							"/>
							<polygon class="st298" points="87.2,97.1 87.2,66.3 116.8,50.9 116.8,81.7 							"/>
							<polygon class="st299" points="146,97.1 146,66.3 116.5,50.9 116.5,81.7 							"/>
							<polygon class="st290" points="87.2,66.6 87.2,35.8 116.8,20.4 116.8,51.2 							"/>
							<polygon class="st292" points="146,66.6 146,35.8 116.5,20.4 116.5,51.2 							"/>
							<polygon class="st300" points="116.8,20.7 116.8,-9.8 116.2,-9.8 87.2,5.3 87.2,36.1 							"/>
							<polygon class="st301" points="146,5.3 117.1,-9.8 116.5,-9.8 116.5,20.7 146,36.1 							"/>
							<polygon class="st302" points="87.2,-9.8 87.2,5.6 116.8,-9.8 116.8,-9.8 							"/>
							<polygon class="st303" points="146,-9.8 116.5,-9.8 116.5,-9.8 146,5.6 							"/>
							<polygon class="st273" points="145.7,310.6 145.7,279.8 175.2,264.3 175.2,295.2 							"/>
							<polygon class="st273" points="204.4,310.6 204.4,279.8 174.9,264.3 174.9,295.2 							"/>
							<polygon class="st273" points="145.7,280.1 145.7,249.3 175.2,233.9 175.2,264.7 							"/>
							<polygon class="st273" points="204.4,280.1 204.4,249.3 174.9,233.9 174.9,264.7 							"/>
							<polygon class="st273" points="145.7,249.6 145.7,218.8 175.2,203.4 175.2,234.2 							"/>
							<polygon class="st273" points="204.4,249.6 204.4,218.8 174.9,203.4 174.9,234.2 							"/>
							<polygon class="st304" points="145.7,219.1 145.7,188.3 175.2,172.9 175.2,203.7 							"/>
							<polygon class="st273" points="204.4,219.1 204.4,188.3 174.9,172.9 174.9,203.7 							"/>
							<polygon class="st305" points="145.7,188.6 145.7,157.8 175.2,142.4 175.2,173.2 							"/>
							<polygon class="st273" points="204.4,188.6 204.4,157.8 174.9,142.4 174.9,173.2 							"/>
							<polygon class="st284" points="145.7,158.1 145.7,127.3 175.2,111.9 175.2,142.7 							"/>
							<polygon class="st306" points="204.4,158.1 204.4,127.3 174.9,111.9 174.9,142.7 							"/>
							<polygon class="st307" points="145.7,127.6 145.7,96.8 175.2,81.4 175.2,112.2 							"/>
							<polygon class="st285" points="204.4,127.6 204.4,96.8 174.9,81.4 174.9,112.2 							"/>
							<polygon class="st308" points="145.7,97.1 145.7,66.3 175.2,50.9 175.2,81.7 							"/>
							<polygon class="st279" points="204.4,97.1 204.4,66.3 174.9,50.9 174.9,81.7 							"/>
							<polygon class="st279" points="145.7,66.6 145.7,35.8 175.2,20.4 175.2,51.2 							"/>
							<polygon class="st309" points="204.4,66.6 204.4,35.8 174.9,20.4 174.9,51.2 							"/>
							<polygon class="st310" points="175.2,20.7 175.2,-9.8 174.6,-9.8 145.7,5.3 145.7,36.1 							"/>
							<polygon class="st311" points="204.4,5.3 175.5,-9.8 174.9,-9.8 174.9,20.7 204.4,36.1 							"/>
							<polygon class="st312" points="145.7,-9.8 145.7,5.6 175.2,-9.8 175.2,-9.8 							"/>
							<polygon class="st303" points="204.4,-9.8 174.9,-9.8 174.9,-9.8 204.4,5.6 							"/>
							<polygon class="st273" points="204.1,310.6 204.1,279.8 233.7,264.3 233.7,295.2 							"/>
							<polygon class="st273" points="262.9,310.6 262.9,279.8 233.3,264.3 233.3,295.2 							"/>
							<polygon class="st273" points="204.1,280.1 204.1,249.3 233.7,233.9 233.7,264.7 							"/>
							<polygon class="st273" points="262.9,280.1 262.9,249.3 233.3,233.9 233.3,264.7 							"/>
							<polygon class="st273" points="204.1,249.6 204.1,218.8 233.7,203.4 233.7,234.2 							"/>
							<polygon class="st273" points="262.9,249.6 262.9,218.8 233.3,203.4 233.3,234.2 							"/>
							<polygon class="st273" points="204.1,219.1 204.1,188.3 233.7,172.9 233.7,203.7 							"/>
							<polygon class="st273" points="262.9,219.1 262.9,188.3 233.3,172.9 233.3,203.7 							"/>
							<polygon class="st273" points="204.1,188.6 204.1,157.8 233.7,142.4 233.7,173.2 							"/>
							<polygon class="st273" points="262.9,188.6 262.9,157.8 233.3,142.4 233.3,173.2 							"/>
							<polygon class="st315" points="204.1,158.1 204.1,127.3 233.7,111.9 233.7,142.7 							"/>
							<polygon class="st273" points="262.9,158.1 262.9,127.3 233.3,111.9 233.3,142.7 							"/>
							<polygon class="st318" points="204.1,127.6 204.1,96.8 233.7,81.4 233.7,112.2 							"/>
							<polygon class="st287" points="262.9,127.6 262.9,96.8 233.3,81.4 233.3,112.2 							"/>
							<polygon class="st307" points="204.1,97.1 204.1,66.3 233.7,50.9 233.7,81.7 							"/>
							<polygon class="st279" points="262.9,97.1 262.9,66.3 233.3,50.9 233.3,81.7 							"/>
							<polygon class="st291" points="204.1,66.6 204.1,35.8 233.7,20.4 233.7,51.2 							"/>
							<polygon class="st319" points="262.9,66.6 262.9,35.8 233.3,20.4 233.3,51.2 							"/>
							<polygon class="st320" points="233.7,20.7 233.7,-9.8 233.1,-9.8 204.1,5.3 204.1,36.1 							"/>
							<polygon class="st320" points="262.9,5.3 234,-9.8 233.3,-9.8 233.3,20.7 262.9,36.1 							"/>
							<polygon class="st321" points="204.1,-9.8 204.1,5.6 233.7,-9.8 233.7,-9.8 							"/>
							<polygon class="st322" points="262.9,-9.8 233.3,-9.8 233.3,-9.8 262.9,5.6 							"/>
							<polygon class="st273" points="262.6,310.6 262.6,279.8 292.1,264.3 292.1,295.2 							"/>
							<polygon class="st273" points="315.2,276.6 291.8,264.3 291.8,295.2 315.2,307.4 							"/>
							<polygon class="st273" points="262.6,280.1 262.6,249.3 292.1,233.9 292.1,264.7 							"/>
							<polygon class="st273" points="315.2,246.1 291.8,233.9 291.8,264.7 315.2,276.9 							"/>
							<polygon class="st273" points="262.6,249.6 262.6,218.8 292.1,203.4 292.1,234.2 							"/>
							<polygon class="st273" points="315.2,215.6 291.8,203.4 291.8,234.2 315.2,246.4 							"/>
							<polygon class="st273" points="262.6,219.1 262.6,188.3 292.1,172.9 292.1,203.7 							"/>
							<polygon class="st273" points="315.2,185.1 291.8,172.9 291.8,203.7 315.2,215.9 							"/>
							<polygon class="st273" points="262.6,188.6 262.6,157.8 292.1,142.4 292.1,173.2 							"/>
							<polygon class="st273" points="315.2,154.6 291.8,142.4 291.8,173.2 315.2,185.4 							"/>
							<polygon class="st273" points="262.6,158.1 262.6,127.3 292.1,111.9 292.1,142.7 							"/>
							<polygon class="st273" points="315.2,124.1 291.8,111.9 291.8,142.7 315.2,154.9 							"/>
							<polygon class="st293" points="262.6,127.6 262.6,96.8 292.1,81.4 292.1,112.2 							"/>
							<polygon class="st273" points="315.2,93.6 291.8,81.4 291.8,112.2 315.2,124.4 							"/>
							<polygon class="st295" points="262.6,97.1 262.6,66.3 292.1,50.9 292.1,81.7 							"/>
							<polygon class="st273" points="315.2,63.1 291.8,50.9 291.8,81.7 315.2,93.9 							"/>
							<polygon class="st317" points="262.6,66.6 262.6,35.8 292.1,20.4 292.1,51.2 							"/>
							<polygon class="st273" points="315.2,32.6 291.8,20.4 291.8,51.2 315.2,63.4 							"/>
							<polygon class="st287" points="292.1,20.7 292.1,-9.8 291.5,-9.8 262.6,5.3 262.6,36.1 							"/>
							<polygon class="st314" points="315.2,2.1 292.4,-9.8 291.8,-9.8 291.8,20.7 315.2,33 							"/>
							<polygon class="st287" points="262.6,-9.8 262.6,5.6 292.1,-9.8 292.1,-9.8 							"/>
							<polygon class="st297" points="315.2,-9.8 291.8,-9.8 291.8,-9.8 315.2,2.5 							"/>
						</g>
					</g>
				</g>
				<g>
					<defs>
						<rect id="SVGID_00000104680073355128034110000006357582967961697463_" x="-2.8" y="0" width="290.8" height="288"/>
					</defs>
					<clipPath id="SVGID_00000013872445509241227390000004535133243986638212_">
						<use xlink:href="#SVGID_00000104680073355128034110000006357582967961697463_"  style="overflow:visible;"/>
					</clipPath>
				</g>
			</g>
			<g>
				<defs>
					<rect id="SVGID_00000128482799220824172880000006731023605318063291_" x="-2.8" y="0" width="290.8" height="288"/>
				</defs>
				<clipPath id="SVGID_00000155845765508282620330000008496151422064134833_">
					<use xlink:href="#SVGID_00000128482799220824172880000006731023605318063291_"  style="overflow:visible;"/>
				</clipPath>
			</g>
		</g>
	</g>
</g>
</svg>
