<?xml version="1.0" encoding="utf-8"?>
<!-- Generator: Adobe Illustrator 27.5.0, SVG Export Plug-In . SVG Version: 6.00 Build 0)  -->
<svg version="1.1" id="Layer_1" xmlns="http://www.w3.org/2000/svg" xmlns:xlink="http://www.w3.org/1999/xlink" x="0px" y="0px"
	 viewBox="0 0 288 288" style="enable-background:new 0 0 288 288;" xml:space="preserve">
<style type="text/css">
	.st0{clip-path:url(#SVGID_00000092421511017698588560000008218281583544344746_);}
	.st1{fill:#FFFFFF;}
	.st2{clip-path:url(#SVGID_00000105427496387293200900000002625288178590511791_);}
	.st3{fill:#EAEAEA;}
	.st4{fill:#DCDCDC;}
	.st5{fill:#CFCFCF;}
	.st6{fill:#FDFDFD;}
	.st7{fill:#F1F1F1;}
	.st8{fill:#EBEBEB;}
	.st9{fill:#FEFEFE;}
	.st10{fill:#E8E8E8;}
	.st11{fill:#DDDDDD;}
	.st12{fill:#D4D4D4;}
	.st13{fill:#D1D1D1;}
	.st14{fill:#C3C3C3;}
	.st15{fill:#CECECE;}
	.st16{fill:#C4C4C4;}
	.st17{fill:#CBCBCB;}
	.st18{fill:#BFBFBF;}
	.st19{fill:#EFEFEF;}
	.st20{fill:#FAFAFA;}
	.st21{fill:#E9E9E9;}
	.st22{fill:#E5E5E5;}
	.st23{fill:#E6E6E6;}
	.st24{fill:#DFDFDF;}
	.st25{fill:#DBDBDB;}
	.st26{fill:#BBBBBB;}
	.st27{fill:#B9B9B9;}
	.st28{fill:#B3B3B3;}
	.st29{fill:#B5B5B5;}
	.st30{fill:#FBFBFB;}
	.st31{fill:#EEEEEE;}
	.st32{fill:#E4E4E4;}
	.st33{fill:#D7D7D7;}
	.st34{fill:#D9D9D9;}
	.st35{fill:#CCCCCC;}
	.st36{fill:#C5C5C5;}
	.st37{fill:#B8B8B8;}
	.st38{fill:#BEBEBE;}
	.st39{fill:#FCFCFC;}
	.st40{fill:#F9F9F9;}
	.st41{fill:#E1E1E1;}
	.st42{fill:#E3E3E3;}
	.st43{fill:#D6D6D6;}
	.st44{fill:#E0E0E0;}
	.st45{fill:#C0C0C0;}
	.st46{fill:#BABABA;}
	.st47{fill:#AEAEAE;}
	.st48{fill:#BCBCBC;}
</style>
<g>
	<g>
		<defs>
			<rect id="SVGID_1_" y="0" width="288" height="288"/>
		</defs>
		<clipPath id="SVGID_00000018959173216282398960000011072615224829219764_">
			<use xlink:href="#SVGID_1_"  style="overflow:visible;"/>
		</clipPath>
		<g style="clip-path:url(#SVGID_00000018959173216282398960000011072615224829219764_);">
			<rect y="0" class="st1" width="288" height="288"/>
			<g>
				<g>
					<g>
						<g>
							<defs>
								<rect id="SVGID_00000013915278022897336720000017766057764702215065_" x="-2.8" y="0" width="290.8" height="288"/>
							</defs>
							<clipPath id="SVGID_00000113319748135028314980000018100289331325789868_">
								<use xlink:href="#SVGID_00000013915278022897336720000017766057764702215065_"  style="overflow:visible;"/>
							</clipPath>
							<g style="clip-path:url(#SVGID_00000113319748135028314980000018100289331325789868_);">
								<g>
									<polygon class="st1" points="-23.4,297.1 2.9,283.4 2.9,253.2 -23.4,266.9 									"/>
									<polygon class="st1" points="31.5,298.5 31.5,268.3 2.5,253.2 2.5,283.4 									"/>
									<polygon class="st1" points="-23.4,267.2 2.9,253.5 2.9,223.3 -23.4,237 									"/>
									<polygon class="st1" points="31.5,268.6 31.5,238.4 2.5,223.3 2.5,253.5 									"/>
									<polygon class="st1" points="-23.4,237.3 2.9,223.6 2.9,193.4 -23.4,207.1 									"/>
									<polygon class="st1" points="31.5,238.7 31.5,208.5 2.5,193.4 2.5,223.6 									"/>
									<polygon class="st1" points="-23.4,207.4 2.9,193.8 2.9,163.5 -23.4,177.2 									"/>
									<polygon class="st1" points="31.5,208.9 31.5,178.6 2.5,163.5 2.5,193.8 									"/>
									<polygon class="st1" points="-23.4,177.6 2.9,163.9 2.9,133.7 -23.4,147.4 									"/>
									<polygon class="st1" points="31.5,179 31.5,148.8 2.5,133.7 2.5,163.9 									"/>
									<polygon class="st1" points="-23.4,147.7 2.9,134 2.9,103.8 -23.4,117.5 									"/>
									<polygon class="st1" points="31.5,149.1 31.5,118.9 2.5,103.8 2.5,134 									"/>
									<polygon class="st1" points="-23.4,117.8 2.9,104.1 2.9,73.9 -23.4,87.6 									"/>
									<polygon class="st1" points="31.5,119.2 31.5,89 2.5,73.9 2.5,104.1 									"/>
									<polygon class="st1" points="-23.4,87.9 2.9,74.3 2.9,44 -23.4,57.7 									"/>
									<polygon class="st1" points="31.5,89.4 31.5,59.2 2.5,44 2.5,74.3 									"/>
									<polygon class="st1" points="-23.4,58.1 2.9,44.4 2.9,14.2 -23.4,27.9 									"/>
									<polygon class="st3" points="31.5,59.5 31.5,29.3 2.5,14.2 2.5,44.4 									"/>
									<polygon class="st1" points="-23.4,28.2 2.9,14.5 2.9,-9.8 -8.5,-9.8 -23.4,-2 									"/>
									<polygon class="st4" points="31.5,-0.6 13.9,-9.8 2.5,-9.8 2.5,14.5 31.5,29.6 									"/>
									<polygon class="st1" points="-23.4,-1.7 -7.8,-9.8 -23.4,-9.8 									"/>
									<polygon class="st5" points="31.5,-9.8 13.2,-9.8 31.5,-0.3 									"/>
									<polygon class="st1" points="31.2,298.5 31.2,268.3 60.1,253.2 60.1,283.4 									"/>
									<polygon class="st1" points="88.7,298.5 88.7,268.3 59.8,253.2 59.8,283.4 									"/>
									<polygon class="st1" points="31.2,268.6 31.2,238.4 60.1,223.3 60.1,253.5 									"/>
									<polygon class="st1" points="88.7,268.6 88.7,238.4 59.8,223.3 59.8,253.5 									"/>
									<polygon class="st1" points="31.2,238.7 31.2,208.5 60.1,193.4 60.1,223.6 									"/>
									<polygon class="st6" points="88.7,238.7 88.7,208.5 59.8,193.4 59.8,223.6 									"/>
									<polygon class="st1" points="31.2,208.9 31.2,178.6 60.1,163.5 60.1,193.8 									"/>
									<polygon class="st7" points="88.7,208.9 88.7,178.6 59.8,163.5 59.8,193.8 									"/>
									<polygon class="st1" points="31.2,179 31.2,148.8 60.1,133.7 60.1,163.9 									"/>
									<polygon class="st8" points="88.7,179 88.7,148.8 59.8,133.7 59.8,163.9 									"/>
									<polygon class="st9" points="31.2,149.1 31.2,118.9 60.1,103.8 60.1,134 									"/>
									<polygon class="st8" points="88.7,149.1 88.7,118.9 59.8,103.8 59.8,134 									"/>
									<polygon class="st6" points="31.2,119.2 31.2,89 60.1,73.9 60.1,104.1 									"/>
									<polygon class="st10" points="88.7,119.2 88.7,89 59.8,73.9 59.8,104.1 									"/>
									<polygon class="st11" points="31.2,89.4 31.2,59.2 60.1,44 60.1,74.3 									"/>
									<polygon class="st12" points="88.7,89.4 88.7,59.2 59.8,44 59.8,74.3 									"/>
									<polygon class="st13" points="31.2,59.5 31.2,29.3 60.1,14.2 60.1,44.4 									"/>
									<polygon class="st14" points="88.7,59.5 88.7,29.3 59.8,14.2 59.8,44.4 									"/>
									<polygon class="st15" points="60.1,14.5 60.1,-9.8 48.8,-9.8 31.2,-0.6 31.2,29.6 									"/>
									<polygon class="st16" points="88.7,-0.6 71.1,-9.8 59.8,-9.8 59.8,14.5 88.7,29.6 									"/>
									<polygon class="st17" points="49.4,-9.8 31.2,-9.8 31.2,-0.3 									"/>
									<polygon class="st18" points="88.7,-9.8 70.5,-9.8 88.7,-0.3 									"/>
									<polygon class="st1" points="88.4,298.5 88.4,268.3 117.4,253.2 117.4,283.4 									"/>
									<polygon class="st1" points="146,298.5 146,268.3 117.1,253.2 117.1,283.4 									"/>
									<polygon class="st1" points="88.4,268.6 88.4,238.4 117.4,223.3 117.4,253.5 									"/>
									<polygon class="st1" points="146,268.6 146,238.4 117.1,223.3 117.1,253.5 									"/>
									<polygon class="st1" points="88.4,238.7 88.4,208.5 117.4,193.4 117.4,223.6 									"/>
									<polygon class="st9" points="146,238.7 146,208.5 117.1,193.4 117.1,223.6 									"/>
									<polygon class="st19" points="88.4,208.9 88.4,178.6 117.4,163.5 117.4,193.8 									"/>
									<polygon class="st20" points="146,208.9 146,178.6 117.1,163.5 117.1,193.8 									"/>
									<polygon class="st19" points="88.4,179 88.4,148.8 117.4,133.7 117.4,163.9 									"/>
									<polygon class="st19" points="146,179 146,148.8 117.1,133.7 117.1,163.9 									"/>
									<polygon class="st8" points="88.4,149.1 88.4,118.9 117.4,103.8 117.4,134 									"/>
									<polygon class="st21" points="146,149.1 146,118.9 117.1,103.8 117.1,134 									"/>
									<polygon class="st22" points="88.4,119.2 88.4,89 117.4,73.9 117.4,104.1 									"/>
									<polygon class="st23" points="146,119.2 146,89 117.1,73.9 117.1,104.1 									"/>
									<polygon class="st24" points="88.4,89.4 88.4,59.2 117.4,44 117.4,74.3 									"/>
									<polygon class="st25" points="146,89.4 146,59.2 117.1,44 117.1,74.3 									"/>
									<polygon class="st16" points="88.4,59.5 88.4,29.3 117.4,14.2 117.4,44.4 									"/>
									<polygon class="st18" points="146,59.5 146,29.3 117.1,14.2 117.1,44.4 									"/>
									<polygon class="st26" points="117.4,14.5 117.4,-9.8 106,-9.8 88.4,-0.6 88.4,29.6 									"/>
									<polygon class="st27" points="146,-0.6 128.4,-9.8 117.1,-9.8 117.1,14.5 146,29.6 									"/>
									<polygon class="st28" points="106.7,-9.8 88.4,-9.8 88.4,-0.3 									"/>
									<polygon class="st29" points="146,-9.8 127.7,-9.8 146,-0.3 									"/>
									<polygon class="st1" points="145.7,298.5 145.7,268.3 174.6,253.2 174.6,283.4 									"/>
									<polygon class="st1" points="203.2,298.5 203.2,268.3 174.3,253.2 174.3,283.4 									"/>
									<polygon class="st1" points="145.7,268.6 145.7,238.4 174.6,223.3 174.6,253.5 									"/>
									<polygon class="st1" points="203.2,268.6 203.2,238.4 174.3,223.3 174.3,253.5 									"/>
									<polygon class="st1" points="145.7,238.7 145.7,208.5 174.6,193.4 174.6,223.6 									"/>
									<polygon class="st1" points="203.2,238.7 203.2,208.5 174.3,193.4 174.3,223.6 									"/>
									<polygon class="st30" points="145.7,208.9 145.7,178.6 174.6,163.5 174.6,193.8 									"/>
									<polygon class="st1" points="203.2,208.9 203.2,178.6 174.3,163.5 174.3,193.8 									"/>
									<polygon class="st31" points="145.7,179 145.7,148.8 174.6,133.7 174.6,163.9 									"/>
									<polygon class="st10" points="203.2,179 203.2,148.8 174.3,133.7 174.3,163.9 									"/>
									<polygon class="st10" points="145.7,149.1 145.7,118.9 174.6,103.8 174.6,134 									"/>
									<polygon class="st32" points="203.2,149.1 203.2,118.9 174.3,103.8 174.3,134 									"/>
									<polygon class="st33" points="145.7,119.2 145.7,89 174.6,73.9 174.6,104.1 									"/>
									<polygon class="st11" points="203.2,119.2 203.2,89 174.3,73.9 174.3,104.1 									"/>
									<polygon class="st34" points="145.7,89.4 145.7,59.2 174.6,44 174.6,74.3 									"/>
									<polygon class="st5" points="203.2,89.4 203.2,59.2 174.3,44 174.3,74.3 									"/>
									<polygon class="st5" points="145.7,59.5 145.7,29.3 174.6,14.2 174.6,44.4 									"/>
									<polygon class="st35" points="203.2,59.5 203.2,29.3 174.3,14.2 174.3,44.4 									"/>
									<polygon class="st36" points="174.6,14.5 174.6,-9.8 163.3,-9.8 145.7,-0.6 145.7,29.6 									"/>
									<polygon class="st37" points="203.2,-0.6 185.6,-9.8 174.3,-9.8 174.3,14.5 203.2,29.6 									"/>
									<polygon class="st38" points="163.9,-9.8 145.7,-9.8 145.7,-0.3 									"/>
									<polygon class="st29" points="203.2,-9.8 185,-9.8 203.2,-0.3 									"/>
									<polygon class="st1" points="202.9,298.5 202.9,268.3 231.9,253.2 231.9,283.4 									"/>
									<polygon class="st39" points="260.5,298.5 260.5,268.3 231.6,253.2 231.6,283.4 									"/>
									<polygon class="st1" points="202.9,268.6 202.9,238.4 231.9,223.3 231.9,253.5 									"/>
									<polygon class="st39" points="260.5,268.6 260.5,238.4 231.6,223.3 231.6,253.5 									"/>
									<polygon class="st31" points="202.9,238.7 202.9,208.5 231.9,193.4 231.9,223.6 									"/>
									<polygon class="st40" points="260.5,238.7 260.5,208.5 231.6,193.4 231.6,223.6 									"/>
									<polygon class="st22" points="202.9,208.9 202.9,178.6 231.9,163.5 231.9,193.8 									"/>
									<polygon class="st19" points="260.5,208.9 260.5,178.6 231.6,163.5 231.6,193.8 									"/>
									<polygon class="st41" points="202.9,179 202.9,148.8 231.9,133.7 231.9,163.9 									"/>
									<polygon class="st42" points="260.5,179 260.5,148.8 231.6,133.7 231.6,163.9 									"/>
									<polygon class="st41" points="202.9,149.1 202.9,118.9 231.9,103.8 231.9,134 									"/>
									<polygon class="st43" points="260.5,149.1 260.5,118.9 231.6,103.8 231.6,134 									"/>
									<polygon class="st44" points="202.9,119.2 202.9,89 231.9,73.9 231.9,104.1 									"/>
									<polygon class="st13" points="260.5,119.2 260.5,89 231.6,73.9 231.6,104.1 									"/>
									<polygon class="st33" points="202.9,89.4 202.9,59.2 231.9,44 231.9,74.3 									"/>
									<polygon class="st5" points="260.5,89.4 260.5,59.2 231.6,44 231.6,74.3 									"/>
									<polygon class="st17" points="202.9,59.5 202.9,29.3 231.9,14.2 231.9,44.4 									"/>
									<polygon class="st45" points="260.5,59.5 260.5,29.3 231.6,14.2 231.6,44.4 									"/>
									<polygon class="st46" points="231.9,14.5 231.9,-9.8 220.5,-9.8 202.9,-0.6 202.9,29.6 									"/>
									<polygon class="st46" points="260.5,-0.6 242.9,-9.8 231.6,-9.8 231.6,14.5 260.5,29.6 									"/>
									<polygon class="st47" points="221.2,-9.8 202.9,-9.8 202.9,-0.3 									"/>
									<polygon class="st48" points="260.5,-9.8 242.2,-9.8 260.5,-0.3 									"/>
									<polygon class="st1" points="260.2,298.5 260.2,268.3 289.1,253.2 289.1,283.4 									"/>
									<polygon class="st1" points="315.2,266.9 288.8,253.2 288.8,283.4 315.2,297.2 									"/>
									<polygon class="st1" points="260.2,268.6 260.2,238.4 289.1,223.3 289.1,253.5 									"/>
									<polygon class="st1" points="315.2,237.1 288.8,223.3 288.8,253.5 315.2,267.3 									"/>
									<polygon class="st1" points="260.2,238.7 260.2,208.5 289.1,193.4 289.1,223.6 									"/>
									<polygon class="st1" points="315.2,207.2 288.8,193.4 288.8,223.6 315.2,237.4 									"/>
									<polygon class="st1" points="260.2,208.9 260.2,178.6 289.1,163.5 289.1,193.8 									"/>
									<polygon class="st1" points="315.2,177.3 288.8,163.5 288.8,193.8 315.2,207.5 									"/>
									<polygon class="st1" points="260.2,179 260.2,148.8 289.1,133.7 289.1,163.9 									"/>
									<polygon class="st1" points="315.2,147.5 288.8,133.7 288.8,163.9 315.2,177.7 									"/>
									<polygon class="st1" points="260.2,149.1 260.2,118.9 289.1,103.8 289.1,134 									"/>
									<polygon class="st1" points="315.2,117.6 288.8,103.8 288.8,134 315.2,147.8 									"/>
									<polygon class="st40" points="260.2,119.2 260.2,89 289.1,73.9 289.1,104.1 									"/>
									<polygon class="st1" points="315.2,87.7 288.8,73.9 288.8,104.1 315.2,117.9 									"/>
									<polygon class="st21" points="260.2,89.4 260.2,59.2 289.1,44 289.1,74.3 									"/>
									<polygon class="st1" points="315.2,57.8 288.8,44 288.8,74.3 315.2,88 									"/>
									<polygon class="st43" points="260.2,59.5 260.2,29.3 289.1,14.2 289.1,44.4 									"/>
									<polygon class="st1" points="315.2,28 288.8,14.2 288.8,44.4 315.2,58.2 									"/>
									<polygon class="st13" points="289.1,14.5 289.1,-9.8 277.8,-9.8 260.2,-0.6 260.2,29.6 									"/>
									<polygon class="st40" points="315.2,-1.9 300.1,-9.8 288.8,-9.8 288.8,14.5 315.2,28.3 									"/>
									<polygon class="st13" points="278.4,-9.8 260.2,-9.8 260.2,-0.3 									"/>
									<polygon class="st23" points="315.2,-9.8 299.5,-9.8 315.2,-1.6 									"/>
								</g>
								<g>
									<polygon class="st1" points="-23.4,307.3 -0.1,295.2 -0.1,264.3 -23.4,276.5 									"/>
									<polygon class="st1" points="29.1,310.6 29.1,279.8 -0.4,264.3 -0.4,295.2 									"/>
									<polygon class="st1" points="-23.4,276.8 -0.1,264.7 -0.1,233.9 -23.4,246 									"/>
									<polygon class="st1" points="29.1,280.1 29.1,249.3 -0.4,233.9 -0.4,264.7 									"/>
									<polygon class="st1" points="-23.4,246.3 -0.1,234.2 -0.1,203.4 -23.4,215.5 									"/>
									<polygon class="st1" points="29.1,249.6 29.1,218.8 -0.4,203.4 -0.4,234.2 									"/>
									<polygon class="st1" points="-23.4,215.8 -0.1,203.7 -0.1,172.9 -23.4,185 									"/>
									<polygon class="st1" points="29.1,219.1 29.1,188.3 -0.4,172.9 -0.4,203.7 									"/>
									<polygon class="st1" points="-23.4,185.3 -0.1,173.2 -0.1,142.4 -23.4,154.5 									"/>
									<polygon class="st1" points="29.1,188.6 29.1,157.8 -0.4,142.4 -0.4,173.2 									"/>
									<polygon class="st1" points="-23.4,154.8 -0.1,142.7 -0.1,111.9 -23.4,124 									"/>
									<polygon class="st1" points="29.1,158.1 29.1,127.3 -0.4,111.9 -0.4,142.7 									"/>
									<polygon class="st1" points="-23.4,124.3 -0.1,112.2 -0.1,81.4 -23.4,93.5 									"/>
									<polygon class="st8" points="29.1,127.6 29.1,96.8 -0.4,81.4 -0.4,112.2 									"/>
									<polygon class="st1" points="-23.4,93.8 -0.1,81.7 -0.1,50.9 -23.4,63 									"/>
									<polygon class="st24" points="29.1,97.1 29.1,66.3 -0.4,50.9 -0.4,81.7 									"/>
									<polygon class="st1" points="-23.4,63.4 -0.1,51.2 -0.1,20.4 -23.4,32.5 									"/>
									<polygon class="st15" points="29.1,66.6 29.1,35.8 -0.4,20.4 -0.4,51.2 									"/>
									<polygon class="st1" points="-23.4,32.9 -0.1,20.7 -0.1,-9.8 -0.7,-9.8 -23.4,2 									"/>
									<polygon class="st4" points="29.1,5.3 0.2,-9.8 -0.4,-9.8 -0.4,20.7 29.1,36.1 									"/>
									<polygon class="st1" points="-23.4,2.4 -0.1,-9.8 -0.1,-9.8 -23.4,-9.8 									"/>
									<polygon class="st5" points="29.1,-9.8 -0.4,-9.8 -0.4,-9.8 29.1,5.6 									"/>
									<polygon class="st1" points="28.8,310.6 28.8,279.8 58.3,264.3 58.3,295.2 									"/>
									<polygon class="st1" points="87.6,310.6 87.6,279.8 58,264.3 58,295.2 									"/>
									<polygon class="st1" points="28.8,280.1 28.8,249.3 58.3,233.9 58.3,264.7 									"/>
									<polygon class="st1" points="87.6,280.1 87.6,249.3 58,233.9 58,264.7 									"/>
									<polygon class="st1" points="28.8,249.6 28.8,218.8 58.3,203.4 58.3,234.2 									"/>
									<polygon class="st6" points="87.6,249.6 87.6,218.8 58,203.4 58,234.2 									"/>
									<polygon class="st1" points="28.8,219.1 28.8,188.3 58.3,172.9 58.3,203.7 									"/>
									<polygon class="st1" points="87.6,219.1 87.6,188.3 58,172.9 58,203.7 									"/>
									<polygon class="st1" points="28.8,188.6 28.8,157.8 58.3,142.4 58.3,173.2 									"/>
									<polygon class="st1" points="87.6,188.6 87.6,157.8 58,142.4 58,173.2 									"/>
									<polygon class="st9" points="28.8,158.1 28.8,127.3 58.3,111.9 58.3,142.7 									"/>
									<polygon class="st8" points="87.6,158.1 87.6,127.3 58,111.9 58,142.7 									"/>
									<polygon class="st19" points="28.8,127.6 28.8,96.8 58.3,81.4 58.3,112.2 									"/>
									<polygon class="st10" points="87.6,127.6 87.6,96.8 58,81.4 58,112.2 									"/>
									<polygon class="st11" points="28.8,97.1 28.8,66.3 58.3,50.9 58.3,81.7 									"/>
									<polygon class="st12" points="87.6,97.1 87.6,66.3 58,50.9 58,81.7 									"/>
									<polygon class="st13" points="28.8,66.6 28.8,35.8 58.3,20.4 58.3,51.2 									"/>
									<polygon class="st14" points="87.6,66.6 87.6,35.8 58,20.4 58,51.2 									"/>
									<polygon class="st15" points="58.3,20.7 58.3,-9.8 57.7,-9.8 28.8,5.3 28.8,36.1 									"/>
									<polygon class="st16" points="87.6,5.3 58.6,-9.8 58,-9.8 58,20.7 87.6,36.1 									"/>
									<polygon class="st17" points="28.8,-9.8 28.8,5.6 58.3,-9.8 58.3,-9.8 									"/>
									<polygon class="st18" points="87.6,-9.8 58,-9.8 58,-9.8 87.6,5.6 									"/>
									<polygon class="st1" points="87.2,310.6 87.2,279.8 116.8,264.3 116.8,295.2 									"/>
									<polygon class="st1" points="146,310.6 146,279.8 116.5,264.3 116.5,295.2 									"/>
									<polygon class="st1" points="87.2,280.1 87.2,249.3 116.8,233.9 116.8,264.7 									"/>
									<polygon class="st1" points="146,280.1 146,249.3 116.5,233.9 116.5,264.7 									"/>
									<polygon class="st1" points="87.2,249.6 87.2,218.8 116.8,203.4 116.8,234.2 									"/>
									<polygon class="st9" points="146,249.6 146,218.8 116.5,203.4 116.5,234.2 									"/>
									<polygon class="st1" points="87.2,219.1 87.2,188.3 116.8,172.9 116.8,203.7 									"/>
									<polygon class="st20" points="146,219.1 146,188.3 116.5,172.9 116.5,203.7 									"/>
									<polygon class="st1" points="87.2,188.6 87.2,157.8 116.8,142.4 116.8,173.2 									"/>
									<polygon class="st19" points="146,188.6 146,157.8 116.5,142.4 116.5,173.2 									"/>
									<polygon class="st8" points="87.2,158.1 87.2,127.3 116.8,111.9 116.8,142.7 									"/>
									<polygon class="st21" points="146,158.1 146,127.3 116.5,111.9 116.5,142.7 									"/>
									<polygon class="st22" points="87.2,127.6 87.2,96.8 116.8,81.4 116.8,112.2 									"/>
									<polygon class="st23" points="146,127.6 146,96.8 116.5,81.4 116.5,112.2 									"/>
									<polygon class="st24" points="87.2,97.1 87.2,66.3 116.8,50.9 116.8,81.7 									"/>
									<polygon class="st25" points="146,97.1 146,66.3 116.5,50.9 116.5,81.7 									"/>
									<polygon class="st16" points="87.2,66.6 87.2,35.8 116.8,20.4 116.8,51.2 									"/>
									<polygon class="st18" points="146,66.6 146,35.8 116.5,20.4 116.5,51.2 									"/>
									<polygon class="st26" points="116.8,20.7 116.8,-9.8 116.2,-9.8 87.2,5.3 87.2,36.1 									"/>
									<polygon class="st27" points="146,5.3 117.1,-9.8 116.5,-9.8 116.5,20.7 146,36.1 									"/>
									<polygon class="st28" points="87.2,-9.8 87.2,5.6 116.8,-9.8 116.8,-9.8 									"/>
									<polygon class="st29" points="146,-9.8 116.5,-9.8 116.5,-9.8 146,5.6 									"/>
									<polygon class="st1" points="145.7,310.6 145.7,279.8 175.2,264.3 175.2,295.2 									"/>
									<polygon class="st1" points="204.4,310.6 204.4,279.8 174.9,264.3 174.9,295.2 									"/>
									<polygon class="st1" points="145.7,280.1 145.7,249.3 175.2,233.9 175.2,264.7 									"/>
									<polygon class="st1" points="204.4,280.1 204.4,249.3 174.9,233.9 174.9,264.7 									"/>
									<polygon class="st1" points="145.7,249.6 145.7,218.8 175.2,203.4 175.2,234.2 									"/>
									<polygon class="st1" points="204.4,249.6 204.4,218.8 174.9,203.4 174.9,234.2 									"/>
									<polygon class="st30" points="145.7,219.1 145.7,188.3 175.2,172.9 175.2,203.7 									"/>
									<polygon class="st1" points="204.4,219.1 204.4,188.3 174.9,172.9 174.9,203.7 									"/>
									<polygon class="st31" points="145.7,188.6 145.7,157.8 175.2,142.4 175.2,173.2 									"/>
									<polygon class="st1" points="204.4,188.6 204.4,157.8 174.9,142.4 174.9,173.2 									"/>
									<polygon class="st10" points="145.7,158.1 145.7,127.3 175.2,111.9 175.2,142.7 									"/>
									<polygon class="st32" points="204.4,158.1 204.4,127.3 174.9,111.9 174.9,142.7 									"/>
									<polygon class="st33" points="145.7,127.6 145.7,96.8 175.2,81.4 175.2,112.2 									"/>
									<polygon class="st11" points="204.4,127.6 204.4,96.8 174.9,81.4 174.9,112.2 									"/>
									<polygon class="st34" points="145.7,97.1 145.7,66.3 175.2,50.9 175.2,81.7 									"/>
									<polygon class="st5" points="204.4,97.1 204.4,66.3 174.9,50.9 174.9,81.7 									"/>
									<polygon class="st5" points="145.7,66.6 145.7,35.8 175.2,20.4 175.2,51.2 									"/>
									<polygon class="st35" points="204.4,66.6 204.4,35.8 174.9,20.4 174.9,51.2 									"/>
									<polygon class="st36" points="175.2,20.7 175.2,-9.8 174.6,-9.8 145.7,5.3 145.7,36.1 									"/>
									<polygon class="st37" points="204.4,5.3 175.5,-9.8 174.9,-9.8 174.9,20.7 204.4,36.1 									"/>
									<polygon class="st38" points="145.7,-9.8 145.7,5.6 175.2,-9.8 175.2,-9.8 									"/>
									<polygon class="st29" points="204.4,-9.8 174.9,-9.8 174.9,-9.8 204.4,5.6 									"/>
									<polygon class="st1" points="204.1,310.6 204.1,279.8 233.7,264.3 233.7,295.2 									"/>
									<polygon class="st1" points="262.9,310.6 262.9,279.8 233.3,264.3 233.3,295.2 									"/>
									<polygon class="st1" points="204.1,280.1 204.1,249.3 233.7,233.9 233.7,264.7 									"/>
									<polygon class="st1" points="262.9,280.1 262.9,249.3 233.3,233.9 233.3,264.7 									"/>
									<polygon class="st1" points="204.1,249.6 204.1,218.8 233.7,203.4 233.7,234.2 									"/>
									<polygon class="st1" points="262.9,249.6 262.9,218.8 233.3,203.4 233.3,234.2 									"/>
									<polygon class="st1" points="204.1,219.1 204.1,188.3 233.7,172.9 233.7,203.7 									"/>
									<polygon class="st1" points="262.9,219.1 262.9,188.3 233.3,172.9 233.3,203.7 									"/>
									<polygon class="st1" points="204.1,188.6 204.1,157.8 233.7,142.4 233.7,173.2 									"/>
									<polygon class="st1" points="262.9,188.6 262.9,157.8 233.3,142.4 233.3,173.2 									"/>
									<polygon class="st41" points="204.1,158.1 204.1,127.3 233.7,111.9 233.7,142.7 									"/>
									<polygon class="st1" points="262.9,158.1 262.9,127.3 233.3,111.9 233.3,142.7 									"/>
									<polygon class="st44" points="204.1,127.6 204.1,96.8 233.7,81.4 233.7,112.2 									"/>
									<polygon class="st13" points="262.9,127.6 262.9,96.8 233.3,81.4 233.3,112.2 									"/>
									<polygon class="st33" points="204.1,97.1 204.1,66.3 233.7,50.9 233.7,81.7 									"/>
									<polygon class="st5" points="262.9,97.1 262.9,66.3 233.3,50.9 233.3,81.7 									"/>
									<polygon class="st17" points="204.1,66.6 204.1,35.8 233.7,20.4 233.7,51.2 									"/>
									<polygon class="st45" points="262.9,66.6 262.9,35.8 233.3,20.4 233.3,51.2 									"/>
									<polygon class="st46" points="233.7,20.7 233.7,-9.8 233.1,-9.8 204.1,5.3 204.1,36.1 									"/>
									<polygon class="st46" points="262.9,5.3 234,-9.8 233.3,-9.8 233.3,20.7 262.9,36.1 									"/>
									<polygon class="st47" points="204.1,-9.8 204.1,5.6 233.7,-9.8 233.7,-9.8 									"/>
									<polygon class="st48" points="262.9,-9.8 233.3,-9.8 233.3,-9.8 262.9,5.6 									"/>
									<polygon class="st1" points="262.6,310.6 262.6,279.8 292.1,264.3 292.1,295.2 									"/>
									<polygon class="st1" points="315.2,276.6 291.8,264.3 291.8,295.2 315.2,307.4 									"/>
									<polygon class="st1" points="262.6,280.1 262.6,249.3 292.1,233.9 292.1,264.7 									"/>
									<polygon class="st1" points="315.2,246.1 291.8,233.9 291.8,264.7 315.2,276.9 									"/>
									<polygon class="st1" points="262.6,249.6 262.6,218.8 292.1,203.4 292.1,234.2 									"/>
									<polygon class="st1" points="315.2,215.6 291.8,203.4 291.8,234.2 315.2,246.4 									"/>
									<polygon class="st1" points="262.6,219.1 262.6,188.3 292.1,172.9 292.1,203.7 									"/>
									<polygon class="st1" points="315.2,185.1 291.8,172.9 291.8,203.7 315.2,215.9 									"/>
									<polygon class="st1" points="262.6,188.6 262.6,157.8 292.1,142.4 292.1,173.2 									"/>
									<polygon class="st1" points="315.2,154.6 291.8,142.4 291.8,173.2 315.2,185.4 									"/>
									<polygon class="st1" points="262.6,158.1 262.6,127.3 292.1,111.9 292.1,142.7 									"/>
									<polygon class="st1" points="315.2,124.1 291.8,111.9 291.8,142.7 315.2,154.9 									"/>
									<polygon class="st19" points="262.6,127.6 262.6,96.8 292.1,81.4 292.1,112.2 									"/>
									<polygon class="st1" points="315.2,93.6 291.8,81.4 291.8,112.2 315.2,124.4 									"/>
									<polygon class="st21" points="262.6,97.1 262.6,66.3 292.1,50.9 292.1,81.7 									"/>
									<polygon class="st1" points="315.2,63.1 291.8,50.9 291.8,81.7 315.2,93.9 									"/>
									<polygon class="st43" points="262.6,66.6 262.6,35.8 292.1,20.4 292.1,51.2 									"/>
									<polygon class="st1" points="315.2,32.6 291.8,20.4 291.8,51.2 315.2,63.4 									"/>
									<polygon class="st13" points="292.1,20.7 292.1,-9.8 291.5,-9.8 262.6,5.3 262.6,36.1 									"/>
									<polygon class="st40" points="315.2,2.1 292.4,-9.8 291.8,-9.8 291.8,20.7 315.2,33 									"/>
									<polygon class="st13" points="262.6,-9.8 262.6,5.6 292.1,-9.8 292.1,-9.8 									"/>
									<polygon class="st23" points="315.2,-9.8 291.8,-9.8 291.8,-9.8 315.2,2.5 									"/>
								</g>
							</g>
						</g>
					</g>
				</g>
			</g>
		</g>
	</g>
</g>
</svg>
